<?xml version="1.0" standalone="no"?>
<!DOCTYPE svg PUBLIC "-//W3C//DTD SVG 20010904//EN"
 "http://www.w3.org/TR/2001/REC-SVG-20010904/DTD/svg10.dtd">
<svg version="1.0" xmlns="http://www.w3.org/2000/svg"
 width="1280.000000pt" height="613.000000pt" viewBox="0 0 1280.000000 613.000000"
 preserveAspectRatio="xMidYMid meet">
<metadata>
Created by potrace 1.15, written by Peter Selinger 2001-2017
</metadata>
<g transform="translate(0.000000,613.000000) scale(0.100000,-0.100000)"
fill="#000000" stroke="none">
<path d="M1829 6128 c0 -2 -4 -86 -8 -187 -7 -156 -11 -186 -25 -197 -9 -6
-54 -15 -99 -19 -45 -4 -86 -11 -92 -15 -9 -8 -116 -21 -195 -25 -44 -2 -107
-33 -113 -55 -3 -12 -24 -21 -73 -31 -38 -7 -75 -12 -81 -11 -7 2 -22 -2 -33
-8 -18 -10 -20 -21 -20 -115 0 -63 4 -105 10 -105 6 0 10 -7 10 -16 0 -8 -4
-13 -9 -10 -5 3 -5 -13 1 -37 5 -23 7 -60 3 -82 -11 -68 -13 -95 -20 -259 -3
-88 -8 -163 -11 -168 -3 -5 -5 -58 -5 -119 0 -74 -3 -108 -10 -103 -7 4 -7 0
0 -14 13 -25 14 -65 2 -78 -5 -5 -11 -22 -13 -38 -2 -23 -10 -31 -32 -37 -17
-5 -35 -5 -40 0 -6 5 -18 8 -26 9 -8 0 -37 5 -65 11 -27 7 -59 14 -70 16 -26
6 -25 6 -335 65 -308 59 -310 58 -310 -22 0 -27 -5 -48 -10 -48 -6 0 -10 -6
-8 -12 3 -14 -18 -92 -33 -120 -5 -10 -9 -26 -9 -37 0 -11 -4 -21 -9 -23 -10
-3 5 -102 20 -130 5 -10 9 -24 9 -32 0 -8 9 -18 20 -21 11 -3 20 -12 20 -20 0
-7 7 -15 15 -19 8 -3 15 -12 15 -20 0 -7 7 -17 15 -20 13 -4 14 -10 5 -26 -6
-11 -15 -18 -21 -15 -5 4 -9 -5 -9 -19 0 -30 -3 -31 -33 -11 -21 13 -25 12
-49 -10 -15 -14 -33 -22 -41 -19 -10 4 -15 -1 -14 -13 1 -12 -6 -19 -21 -21
-12 -2 -20 -7 -17 -12 3 -5 1 -11 -5 -15 -6 -4 -10 -51 -10 -111 0 -83 3 -106
15 -110 11 -5 12 -11 4 -25 -8 -15 -5 -24 15 -43 26 -23 26 -39 0 -29 -19 7
-18 -6 6 -49 17 -32 17 -37 3 -42 -11 -5 -12 -10 -5 -19 6 -6 12 -28 14 -47 2
-24 10 -38 25 -46 25 -12 20 -24 -9 -24 -24 0 -23 -6 8 -43 16 -18 24 -38 20
-50 -4 -16 0 -18 20 -14 26 5 33 -10 9 -19 -20 -8 -19 -53 1 -61 11 -4 13 -13
8 -36 -6 -28 -5 -29 20 -23 15 4 26 2 26 -4 0 -5 -6 -10 -13 -10 -31 0 -36
-22 -11 -49 14 -15 22 -33 18 -43 -2 -9 11 -48 30 -87 32 -62 41 -101 87 -368
28 -164 56 -331 61 -370 8 -49 15 -73 25 -73 16 0 17 -17 1 -22 -9 -3 -9 -15
-1 -49 6 -24 17 -82 23 -129 6 -47 14 -92 18 -100 3 -8 6 -24 7 -35 5 -74 17
-115 33 -116 11 0 12 -3 5 -6 -17 -6 -17 -60 -1 -70 7 -4 13 -26 14 -48 2 -74
9 -100 25 -97 12 1 15 -5 11 -28 -2 -16 -8 -27 -13 -24 -5 3 -9 1 -9 -5 0 -6
9 -15 21 -21 16 -9 18 -14 8 -26 -9 -11 -7 -14 14 -14 28 0 44 -15 27 -25 -5
-3 -10 -15 -10 -26 0 -12 -4 -17 -11 -13 -7 4 -10 1 -7 -7 3 -8 11 -14 19 -14
8 0 14 -7 15 -15 3 -51 4 -51 25 -45 19 6 21 4 15 -19 -5 -20 -2 -28 11 -34
20 -8 25 -61 8 -75 -6 -5 -2 -6 8 -3 13 4 20 0 24 -14 3 -11 12 -20 20 -20 9
0 13 -6 9 -15 -8 -21 3 -45 20 -45 8 0 14 -5 14 -11 0 -6 -7 -9 -15 -5 -8 3
-15 1 -15 -4 0 -6 5 -10 10 -10 6 0 10 -9 10 -20 0 -10 8 -23 17 -29 10 -5 14
-13 9 -18 -5 -4 -11 -2 -13 5 -9 24 -19 3 -15 -31 3 -24 11 -39 27 -47 13 -7
23 -16 22 -19 -1 -4 15 -22 36 -40 20 -18 37 -39 37 -47 0 -8 7 -17 15 -20 10
-4 12 -15 8 -34 -6 -32 26 -112 42 -106 15 5 16 -84 2 -112 -8 -17 -8 -31 0
-52 6 -17 7 -32 1 -38 -5 -5 -3 -14 7 -22 12 -10 18 -10 30 0 20 17 19 1 -2
-22 -16 -18 -15 -21 19 -54 35 -36 36 -36 62 -19 23 16 26 16 26 1 0 -21 43
-21 60 -1 17 21 30 19 30 -5 0 -11 7 -20 16 -20 21 0 84 49 84 66 0 7 5 16 12
20 8 5 9 2 5 -9 -9 -24 10 -21 36 5 18 19 27 21 45 13 12 -5 22 -16 22 -23 0
-7 11 -18 25 -24 14 -6 25 -17 25 -24 0 -7 9 -16 20 -19 13 -4 20 -15 20 -31
0 -27 3 -28 31 -14 10 6 19 21 20 33 0 12 3 17 5 10 3 -7 12 -9 20 -6 9 3 14
-2 14 -16 0 -13 -5 -19 -14 -15 -20 8 -30 -14 -16 -31 11 -13 568 -15 4375
-15 4286 0 4362 0 4379 19 14 15 15 24 6 40 -6 12 -20 21 -30 21 -21 0 -27 24
-10 35 6 3 10 15 10 26 0 23 13 25 30 4 9 -11 16 -12 31 -2 15 9 23 9 39 0 19
-13 37 -2 26 16 -3 5 1 14 9 21 12 10 16 9 21 -4 5 -13 14 -15 34 -11 16 3 31
2 34 -3 3 -5 32 -9 65 -9 33 0 67 -5 75 -12 15 -13 32 1 21 18 -9 16 17 25 29
10 7 -9 32 -16 65 -17 30 -1 60 -7 67 -13 7 -6 23 -8 35 -4 13 4 24 2 29 -5
10 -17 30 -3 30 21 0 10 7 19 15 19 9 0 14 -8 12 -22 -3 -29 28 -37 36 -8 7
26 27 26 27 0 0 -13 7 -20 20 -20 11 0 20 5 20 11 0 8 5 8 15 -1 8 -7 25 -10
39 -6 14 3 27 2 30 -2 3 -5 27 -9 55 -10 43 -1 50 2 53 20 5 32 28 35 28 4 0
-27 6 -31 28 -17 23 14 9 53 -26 73 -19 10 -41 17 -50 16 -13 -2 -17 5 -17 32
0 28 -4 36 -22 38 -12 2 -27 10 -33 17 -9 11 -17 12 -32 4 -14 -7 -23 -7 -34
1 -7 7 -23 10 -34 7 -10 -3 -24 1 -30 8 -16 20 -40 7 -40 -21 0 -17 -4 -22
-16 -17 -8 3 -13 12 -10 20 11 27 -6 36 -24 13 -12 -16 -21 -20 -31 -14 -8 5
-36 14 -62 19 -50 10 -61 30 -17 30 16 0 28 8 35 23 12 27 35 29 35 2 0 -22
16 -27 22 -8 2 6 22 12 44 12 35 1 39 4 36 24 -1 15 2 22 10 19 7 -2 12 -14
10 -25 -4 -26 19 -30 38 -7 8 9 17 12 24 6 6 -4 32 -9 57 -9 39 0 48 4 62 26
17 27 17 27 23 5 6 -20 8 -21 29 -7 20 13 24 13 35 -1 8 -10 17 -12 29 -5 10
5 23 5 32 -1 22 -14 28 -11 41 16 12 28 28 33 28 10 0 -18 21 -20 38 -3 9 9
15 9 24 0 7 -7 33 -12 59 -12 39 0 48 3 52 21 8 29 25 15 19 -16 -6 -32 11
-32 37 1 18 23 22 24 27 9 5 -11 14 -15 29 -11 14 4 28 0 35 -9 10 -12 16 -13
27 -4 10 9 19 9 36 1 12 -6 40 -13 62 -14 35 -3 40 0 43 19 4 29 20 30 24 1 4
-25 28 -37 28 -14 0 20 23 21 39 2 7 -9 29 -13 61 -11 28 1 50 -2 50 -6 0 -5
23 -9 51 -9 40 0 55 5 70 22 l18 23 1 -22 c0 -25 10 -29 28 -11 8 8 18 9 34 1
13 -6 45 -11 73 -12 27 -1 55 -6 61 -12 8 -7 18 -1 32 18 l21 28 11 -30 c9
-23 13 -26 20 -15 5 8 24 15 42 15 24 0 34 5 36 19 6 30 23 42 54 38 22 -3 30
1 37 19 10 24 10 24 10 2 1 -33 22 -39 43 -13 18 22 19 22 32 5 9 -13 20 -16
44 -10 l32 7 0 758 c0 661 -2 759 -15 770 -8 7 -15 18 -15 25 0 7 -21 15 -52
19 -29 4 -66 13 -83 21 -16 7 -63 16 -104 19 -41 4 -77 8 -79 10 -2 3 -5 51
-8 108 -3 103 -10 238 -18 376 -4 72 -4 74 17 69 51 -13 155 -18 161 -8 7 11
106 3 120 -10 6 -5 23 -9 38 -9 33 0 37 19 8 45 -15 13 -23 15 -33 7 -8 -7
-17 -8 -23 -2 -8 8 -34 12 -154 26 -25 2 -54 9 -65 14 -11 6 -72 16 -135 23
-115 12 -115 12 -118 40 -4 29 -11 34 -29 16 -8 -8 -13 -8 -17 0 -4 6 -16 11
-27 11 -10 0 -19 7 -19 15 0 23 -76 57 -110 50 -21 -5 -33 -1 -48 15 -20 22
-114 42 -158 34 -14 -3 -24 2 -28 12 -5 13 -9 14 -21 4 -12 -10 -18 -10 -29
-1 -8 7 -34 14 -58 16 -113 8 -194 17 -202 23 -6 3 -33 7 -60 8 -28 2 -52 8
-54 13 -2 6 -10 11 -18 11 -8 0 -14 7 -14 15 0 19 -9 19 -32 -2 -10 -9 -20
-14 -22 -12 -3 3 -7 55 -9 117 -2 62 -7 115 -10 119 -10 9 -9 153 1 153 12 0
15 147 3 155 -6 3 -11 40 -11 85 0 78 0 79 28 82 23 3 27 8 30 39 2 23 -2 40
-12 49 -16 13 -22 70 -8 70 4 0 13 -5 20 -12 10 -10 16 -8 30 5 16 17 16 19
-2 29 -10 6 -35 25 -55 42 -20 18 -53 40 -73 49 -20 10 -40 22 -43 27 -4 6
-21 17 -38 26 -48 23 -87 45 -140 82 -48 32 -109 43 -122 22 -3 -5 -42 -10
-86 -10 l-79 0 17 26 c15 24 16 39 5 177 -13 163 -24 194 -54 155 -19 -25 -24
-88 -8 -104 5 -5 12 -60 14 -122 3 -61 7 -116 10 -121 4 -5 3 -12 -2 -15 -5
-3 -89 -8 -188 -12 -231 -8 -242 -9 -250 -17 -4 -4 -18 -7 -31 -7 -16 0 -23
-6 -23 -20 0 -10 -9 -24 -20 -30 -11 -6 -20 -17 -20 -24 0 -8 -7 -12 -17 -10
-34 9 -60 -105 -31 -134 19 -19 0 -27 -28 -11 -23 12 -27 11 -39 -4 -15 -21
-38 -22 -55 -2 -7 8 -16 12 -21 10 -10 -7 -114 62 -189 125 -30 26 -78 61
-106 78 -28 18 -59 41 -69 52 -10 11 -24 20 -31 20 -7 0 -14 3 -16 8 -1 4 -39
34 -83 67 -90 68 -112 85 -169 136 -23 19 -76 61 -119 93 -43 32 -83 66 -90
77 -6 10 -17 19 -24 19 -13 0 -73 43 -143 102 -19 16 -55 44 -80 63 -25 19
-87 67 -139 107 -51 40 -106 82 -121 93 -70 50 -121 85 -125 85 -2 0 -21 15
-41 34 -21 19 -58 43 -83 52 -26 9 -48 20 -51 23 -3 3 -31 19 -62 35 -32 15
-69 39 -83 52 -15 13 -31 22 -36 19 -5 -4 -9 -2 -9 3 0 5 -15 15 -32 22 -18 7
-49 19 -68 28 -19 9 -42 15 -51 14 -9 -2 -19 4 -22 12 -3 8 -21 17 -39 21 -18
4 -42 14 -53 21 -11 8 -26 14 -33 14 -8 0 -27 9 -43 21 -16 11 -35 22 -42 23
-7 1 -17 5 -23 8 -6 4 -31 10 -55 14 -24 4 -48 10 -54 14 -5 4 -35 13 -65 19
-30 7 -64 16 -75 21 -11 5 -51 14 -88 20 -38 6 -76 15 -85 20 -28 15 -187 39
-362 55 -212 20 -212 20 -230 28 -25 12 -446 3 -461 -9 -8 -7 -97 -17 -199
-24 -102 -7 -189 -15 -195 -20 -5 -4 -50 -11 -100 -14 -49 -4 -94 -11 -100
-16 -11 -9 -104 -16 -375 -25 -85 -4 -171 -8 -190 -10 -163 -21 -220 -27 -249
-26 -19 0 -48 -6 -65 -13 -41 -19 -75 -29 -109 -31 -15 -2 -33 -8 -41 -14 -8
-7 -38 -14 -67 -18 -30 -3 -59 -9 -64 -14 -6 -4 -42 -13 -80 -20 -39 -6 -74
-15 -80 -19 -5 -4 -26 -11 -45 -15 -19 -4 -44 -13 -56 -20 -12 -8 -38 -17 -58
-20 -20 -4 -39 -11 -41 -16 -3 -4 -26 -11 -52 -15 -25 -4 -58 -13 -72 -20 -14
-8 -32 -14 -39 -14 -7 0 -34 -11 -60 -25 -26 -14 -53 -25 -59 -25 -7 0 -13 -5
-13 -11 0 -6 -7 -8 -16 -5 -9 3 -25 -1 -37 -9 -12 -8 -29 -15 -39 -15 -10 0
-18 -4 -18 -10 0 -5 -8 -10 -18 -10 -10 0 -29 -8 -42 -17 -14 -10 -26 -17 -27
-16 -3 3 -75 -26 -156 -61 -21 -9 -44 -16 -53 -16 -8 0 -27 -8 -42 -18 -15
-10 -41 -28 -58 -39 -36 -25 -96 -43 -141 -43 -17 0 -35 -4 -38 -10 -3 -5 -37
-10 -75 -10 -38 0 -72 5 -75 10 -3 6 -32 10 -63 11 -100 1 -189 22 -227 52
-19 15 -35 34 -35 42 0 8 -7 15 -16 15 -13 0 -14 18 -10 143 2 78 7 161 11
185 5 28 3 42 -4 42 -6 0 -11 6 -11 14 0 7 -7 19 -15 26 -9 8 -12 22 -8 41 3
17 0 35 -7 44 -13 16 -1 21 16 6 5 -4 21 -11 37 -15 25 -6 27 -4 27 24 0 22
-7 34 -27 45 -16 9 -46 26 -68 39 -22 13 -60 34 -85 47 -25 12 -47 26 -50 30
-3 5 -27 17 -52 29 -26 11 -48 24 -50 28 -2 4 -23 17 -48 29 -25 13 -62 33
-82 45 -29 18 -40 20 -49 11 -10 -10 -9 -16 1 -28 7 -8 9 -19 5 -23 -4 -4 -10
-1 -13 7 -9 25 -43 52 -60 47 -9 -2 -53 -6 -97 -8 -44 -2 -83 -7 -86 -12 -4
-5 -19 -6 -33 -2 -25 6 -26 8 -27 94 -1 122 1 179 7 240 6 48 5 52 -15 52 -11
0 -21 -1 -22 -2z m4986 -648 c50 -6 114 -10 143 -10 32 1 63 -5 76 -14 24 -15
126 -37 138 -30 4 2 9 0 13 -6 4 -6 12 -7 18 -3 18 11 51 12 64 1 7 -5 17 -7
22 -4 5 4 12 2 16 -3 3 -6 32 -13 65 -17 33 -4 60 -10 60 -14 0 -4 18 -13 41
-20 23 -8 43 -19 45 -24 2 -6 18 -12 36 -13 17 -1 41 -12 53 -23 12 -11 29
-20 39 -20 10 0 16 -6 13 -12 -5 -16 -12 -15 -119 16 -48 13 -113 28 -145 32
-32 4 -61 11 -64 16 -4 6 -46 14 -94 19 -48 5 -104 13 -124 18 -20 6 -80 13
-133 17 -54 4 -106 7 -115 8 -10 1 -29 7 -42 15 -14 8 -26 9 -30 4 -6 -10
-290 3 -301 13 -12 12 21 40 58 49 22 6 43 13 46 16 8 8 111 3 221 -11z m-687
-64 c17 -1 32 -6 32 -11 0 -11 -77 -19 -167 -19 -29 1 -53 -3 -53 -7 0 -11
-96 -29 -185 -34 -43 -2 -81 -9 -85 -14 -3 -6 -28 -13 -55 -16 -28 -3 -74 -10
-103 -15 -28 -5 -59 -7 -67 -3 -9 3 -23 -1 -33 -10 -9 -8 -35 -17 -57 -21 -78
-12 -90 -15 -93 -25 -2 -6 -21 -11 -42 -11 -21 0 -42 -5 -46 -11 -4 -6 -20 -9
-38 -6 -19 3 -39 -1 -51 -9 -25 -19 -30 -18 -43 9 -10 22 -11 21 -23 -10 -17
-41 -38 -42 -46 -3 -7 39 -27 33 -31 -8 -3 -25 -9 -33 -30 -38 -15 -4 -31 -10
-37 -14 -5 -5 -30 -13 -55 -20 -25 -6 -52 -14 -60 -17 -8 -3 -22 -7 -30 -8 -8
-1 -32 -7 -53 -14 -21 -7 -41 -10 -44 -7 -3 3 -17 -4 -31 -14 -13 -11 -37 -20
-53 -20 -15 0 -30 -4 -34 -9 -3 -5 -31 -15 -62 -21 -31 -7 -64 -16 -72 -21
-37 -19 -135 -49 -147 -45 -8 3 -18 -4 -24 -14 -6 -12 -21 -20 -35 -20 -35 0
-33 35 3 49 15 6 42 20 60 31 18 11 37 18 42 15 5 -3 11 -1 15 5 3 5 21 10 38
10 18 0 44 6 58 14 15 7 58 23 95 35 38 12 80 28 94 35 14 7 31 11 38 9 8 -3
30 3 50 12 93 44 122 60 122 66 0 3 18 12 40 19 22 7 40 16 40 20 0 3 17 12
38 19 20 8 39 17 42 20 4 6 92 34 145 46 11 3 34 8 50 12 17 4 35 8 40 8 6 1
28 5 50 8 69 13 155 16 161 6 3 -5 11 -6 17 -2 15 9 38 13 127 20 41 3 80 9
86 14 6 5 46 11 90 15 43 3 84 11 91 16 7 6 19 5 33 -2 11 -6 26 -7 33 -3 6 4
31 8 55 9 23 1 45 3 47 6 3 3 31 3 63 0 31 -3 72 -6 90 -6z m635 -50 c15 5 34
-12 23 -23 -8 -8 -96 7 -96 17 0 12 33 18 46 8 6 -5 18 -6 27 -2z m263 -30
c16 -16 25 -74 13 -81 -5 -4 -15 -2 -22 3 -7 5 -32 13 -57 17 -54 9 -112 48
-103 71 5 13 18 14 82 9 42 -4 81 -12 87 -19z m-1011 -16 c-3 -10 -1 -28 4
-41 5 -13 22 -64 36 -114 15 -49 31 -99 35 -110 14 -34 34 -99 36 -116 1 -9 4
-21 8 -27 3 -6 17 -52 30 -104 14 -51 34 -129 45 -172 20 -77 26 -114 16 -105
-9 10 -88 272 -99 329 -1 8 -5 22 -9 30 -3 8 -18 53 -32 100 -14 47 -44 142
-67 211 -22 70 -38 132 -34 138 11 17 37 1 31 -19z m1200 1 l40 -6 9 -68 c9
-74 6 -84 -21 -71 -10 4 -40 15 -68 24 -47 14 -51 19 -60 58 -6 24 -17 47 -24
51 -27 17 0 33 43 26 22 -4 59 -10 81 -14z m-1290 -2 c18 -18 13 -719 -5 -719
-6 0 -15 24 -59 170 -21 72 -31 111 -38 155 -3 17 -9 38 -14 47 -12 22 -11 31
2 23 6 -4 17 1 24 11 11 15 13 42 8 124 -11 182 -10 188 25 192 33 5 50 4 57
-3z m-137 -36 c0 -10 3 -39 7 -65 4 -25 4 -72 0 -104 -6 -50 -9 -55 -18 -39
-23 39 -61 201 -51 216 3 5 18 9 34 9 21 0 29 -5 28 -17z m368 6 c7 -13 -6
-313 -14 -304 -3 3 -18 41 -32 86 -26 78 -26 80 -7 90 17 10 18 18 12 65 -3
29 -4 58 0 64 8 13 32 13 41 -1z m1284 -18 l35 -11 -1 -82 c-1 -129 4 -121
-56 -90 -49 25 -53 30 -65 82 -8 30 -17 65 -20 77 -13 53 1 56 107 24z m-1193
-174 c2 -218 -8 -458 -18 -432 -29 77 -50 179 -45 217 3 24 8 119 11 212 3
109 8 173 16 182 26 32 34 -6 36 -179z m147 180 c13 -10 17 -24 14 -62 -2 -28
-7 -49 -13 -48 -8 2 -33 86 -35 116 0 11 14 9 34 -6z m-729 -394 c0 -215 -3
-383 -7 -372 -6 14 -17 19 -46 19 -45 0 -56 10 -69 60 -8 29 -6 38 9 50 16 13
17 23 10 85 -5 39 -7 90 -6 115 2 25 5 133 8 240 3 107 5 196 5 198 1 2 22 2
49 0 l47 -3 0 -392z m650 342 c12 -38 23 -54 33 -53 19 4 35 -40 77 -212 19
-74 46 -177 60 -229 14 -51 24 -100 22 -110 -5 -23 -21 17 -52 137 -15 53 -29
106 -32 117 -2 11 -8 38 -13 60 -12 62 -50 198 -60 215 -15 24 -13 -6 5 -74 8
-32 22 -86 29 -120 35 -153 65 -274 79 -313 16 -48 12 -53 -47 -53 -18 0 -37
-5 -44 -12 -16 -16 -26 -4 -15 19 13 25 7 383 -6 396 -26 26 -36 -14 -37 -146
-1 -73 -4 -149 -8 -171 -4 -26 -1 -48 9 -68 18 -37 12 -48 -26 -48 l-30 0 6
93 c4 50 8 211 10 357 1 146 3 266 4 268 7 14 22 -8 36 -53z m-808 -208 c-4
-126 -9 -232 -12 -235 -9 -9 -15 3 -45 91 -26 76 -29 101 -29 199 0 62 2 123
6 136 5 23 60 54 77 44 5 -3 6 -106 3 -235z m2183 233 c0 -5 -4 -10 -10 -10
-5 0 -10 5 -10 10 0 6 5 10 10 10 6 0 10 -4 10 -10z m-1166 -31 c8 -39 6 -322
-3 -409 l-6 -65 -22 65 c-40 120 -64 222 -55 234 5 6 12 50 15 98 5 98 9 108
41 108 18 0 25 -7 30 -31z m1230 16 c8 -8 19 -15 25 -15 6 0 11 -4 11 -10 0
-14 -13 -12 -36 5 -10 8 -27 15 -36 15 -10 0 -18 5 -18 10 0 15 37 12 54 -5z
m-1749 -82 c26 -83 26 -90 16 -182 -17 -139 -31 -350 -25 -366 3 -7 1 -16 -5
-19 -6 -4 -8 -13 -5 -20 7 -17 -12 -30 -21 -15 -8 13 -9 173 -1 461 3 113 6
211 6 217 0 26 9 5 35 -76z m643 64 c8 -7 12 -46 12 -136 -1 -163 -13 -142
-77 127 -5 21 -3 23 23 21 16 -2 35 -7 42 -12z m1005 -10 c22 -10 27 -18 27
-47 0 -19 -5 -53 -11 -75 -6 -22 -13 -53 -17 -69 -11 -42 -36 -49 -27 -7 7 34
-1 40 -19 15 -14 -19 -43 -9 -51 17 -5 15 -10 17 -20 9 -19 -16 -32 7 -40 74
-9 68 10 73 21 5 8 -49 17 -55 34 -24 10 18 10 34 2 66 -6 24 -8 47 -5 52 6
10 65 1 106 -16z m-2260 -59 c-7 -91 -7 -125 -1 -283 3 -68 2 -151 -6 -395 -3
-129 -6 -248 -7 -265 0 -33 -14 -63 -25 -53 -3 4 -5 62 -4 130 1 68 2 132 1
143 -6 129 5 771 14 786 4 5 12 9 20 9 11 0 13 -14 8 -72z m961 56 c3 -8 2
-12 -4 -9 -6 3 -10 10 -10 16 0 14 7 11 14 -7z m980 -54 c-8 -7 -24 24 -23 45
0 15 4 13 14 -10 7 -16 11 -32 9 -35z m556 45 c36 -21 76 -37 95 -39 6 -1 24
-11 40 -23 24 -17 27 -24 18 -34 -10 -10 -15 -10 -27 0 -18 15 -87 51 -97 51
-15 0 -109 45 -109 53 0 12 54 7 80 -8z m-1106 -23 c8 -13 -15 -516 -24 -525
-4 -5 -15 9 -24 30 -10 21 -22 47 -27 58 -5 11 -13 40 -18 65 -5 25 -12 52
-15 61 -5 10 1 19 18 27 29 13 40 70 38 206 0 49 1 93 4 98 5 8 39 -6 48 -20z
m-1529 -109 c-3 -65 -10 -168 -16 -230 -6 -61 -8 -149 -5 -195 4 -45 7 -91 7
-101 0 -25 26 -33 48 -13 24 22 29 20 23 -9 -2 -14 -11 -25 -21 -25 -9 0 -28
-7 -43 -14 -54 -28 -71 -25 -87 19 -8 22 -21 56 -29 75 -22 50 -24 77 -11 102
8 15 13 88 15 203 2 99 7 205 11 235 8 53 9 55 43 61 76 14 71 22 65 -108z
m1591 99 c7 -4 19 -34 27 -67 42 -163 41 -152 20 -179 -20 -25 -24 -60 -27
-235 -1 -40 -5 -56 -19 -65 -15 -9 -22 -7 -39 14 -16 20 -19 33 -14 75 3 27 8
124 11 215 6 178 12 250 23 250 4 0 12 -4 18 -8z m942 -13 c94 -30 96 -33 71
-99 -11 -30 -28 -75 -36 -100 -9 -25 -19 -49 -23 -53 -11 -12 -88 41 -96 65
-6 20 5 208 13 208 2 0 34 -10 71 -21z m-2054 -111 c32 -104 34 -121 26 -174
-18 -122 -20 -230 -4 -252 8 -12 21 -19 30 -15 12 4 13 20 8 94 -4 52 -3 89 2
89 8 0 40 -105 59 -194 5 -25 4 -27 -12 -21 -30 14 -87 6 -116 -16 -16 -11
-31 -19 -33 -16 -5 5 -7 150 -5 426 1 112 4 202 6 199 2 -2 20 -56 39 -120z
m-660 41 c-5 -247 -10 -311 -25 -287 -10 15 -12 342 -2 352 18 18 28 -6 27
-65z m1865 24 c0 -31 -2 -34 -9 -18 -12 28 -12 55 0 55 6 0 10 -17 9 -37z
m-1924 -93 c1 -58 -3 -115 -8 -127 -6 -13 -6 -33 1 -52 14 -40 3 -84 -18 -71
-11 7 -16 32 -17 97 -6 261 -6 267 25 261 15 -3 17 -19 17 -108z m-86 36 c-1
-89 -11 -96 -41 -27 l-26 60 21 14 c35 23 47 10 46 -47z m2098 56 c16 -10 18
-55 9 -232 -7 -157 -15 -244 -23 -236 -12 12 -21 81 -12 93 7 7 8 26 3 45 -4
18 -8 102 -9 186 -1 151 1 164 32 144z m1063 -13 c0 -5 4 -8 9 -5 11 7 36 -22
27 -31 -3 -3 -14 1 -24 10 -10 10 -24 17 -30 17 -7 0 -12 5 -12 10 0 6 7 10
15 10 8 0 15 -5 15 -11z m-160 -15 c0 -8 -4 -12 -10 -9 -5 3 -10 10 -10 16 0
5 5 9 10 9 6 0 10 -7 10 -16z m-820 -78 c18 -68 20 -94 14 -199 -4 -67 -8
-131 -9 -142 -1 -11 -3 -28 -4 -37 -1 -21 -34 -24 -49 -5 -6 7 -9 45 -7 87 2
41 6 140 10 219 6 131 11 169 20 159 2 -2 13 -39 25 -82z m-2234 -27 l42 -96
7 -167 c4 -93 4 -203 0 -246 -7 -77 -7 -77 -43 -92 -73 -31 -110 -41 -128 -34
-18 7 -18 8 4 24 31 24 46 82 33 130 -7 23 -9 109 -6 213 8 306 8 326 0 339
-9 14 13 31 34 27 8 -1 34 -45 57 -98z m1734 -59 c31 -105 46 -275 26 -287 -6
-4 -26 -8 -43 -10 -38 -2 -55 19 -47 62 3 15 6 109 8 209 2 99 5 183 6 186 1
3 7 -11 12 -30 6 -19 23 -78 38 -130z m1412 137 c12 -19 -2 -127 -22 -176 -10
-25 -21 -54 -24 -63 -6 -20 -34 -14 -52 11 -19 25 -11 150 14 205 20 45 24 48
49 41 15 -3 31 -12 35 -18z m148 3 c0 -5 -4 -10 -10 -10 -5 0 -10 5 -10 10 0
6 5 10 10 10 6 0 10 -4 10 -10z m-3441 -217 c-1 -120 -4 -261 -8 -313 l-6 -95
-29 55 c-16 30 -37 65 -46 78 -16 20 -18 44 -15 236 1 118 6 219 9 225 4 6 17
11 29 11 12 0 29 5 37 10 8 5 18 10 23 10 4 0 6 -98 6 -217z m2518 175 c10 -8
13 -44 11 -142 -2 -127 -10 -189 -21 -156 -8 25 -31 134 -33 155 -1 11 -9 49
-18 84 -21 79 -17 95 21 80 15 -5 33 -15 40 -21z m632 -79 c-13 -38 -29 -69
-36 -69 -19 0 -16 20 14 100 21 58 28 69 36 55 7 -12 2 -37 -14 -86z m291 2
c0 -53 -60 -221 -79 -221 -4 0 -15 8 -24 18 -24 26 -19 227 6 266 l17 26 40
-26 c35 -23 40 -32 40 -63z m-3577 -308 c0 -197 -2 -366 -2 -375 -1 -10 -9
-18 -18 -18 -17 0 -18 26 -21 374 -2 349 -1 375 15 385 10 5 20 6 23 1 3 -4 4
-169 3 -367z m3087 355 c0 -16 -3 -19 -11 -11 -6 6 -8 16 -5 22 11 17 16 13
16 -11z m-353 0 c6 -7 13 -31 17 -53 4 -22 11 -60 16 -85 8 -46 -7 -258 -20
-273 -4 -4 -18 1 -31 12 -24 19 -24 19 -20 207 1 104 5 192 8 196 6 12 19 10
30 -4z m-2803 -154 c7 -136 0 -171 -20 -107 -6 21 -24 70 -39 108 -27 68 -45
147 -30 133 4 -3 21 0 38 7 24 10 34 10 38 2 4 -7 9 -71 13 -143z m792 68
c-11 -10 -14 3 -8 33 l7 30 3 -28 c2 -16 1 -31 -2 -35z m2135 48 c10 -6 19
-17 19 -25 0 -19 21 -30 29 -16 11 18 38 3 46 -26 5 -21 8 -23 22 -11 15 12
16 8 9 -46 -3 -33 -13 -73 -20 -90 -8 -17 -18 -42 -21 -55 -4 -14 -16 -38 -26
-55 l-19 -31 0 27 c0 14 10 51 21 82 21 53 19 89 -1 56 -7 -11 -10 -3 -10 27
0 53 -20 68 -21 16 -1 -21 -4 -49 -8 -63 -7 -21 -10 -16 -21 35 -7 33 -17 64
-22 70 -9 10 -11 115 -2 115 3 0 14 -5 25 -10z m819 -5 c17 -9 30 -20 30 -25
0 -6 8 -10 18 -10 10 0 22 -3 25 -6 8 -8 -9 -40 -33 -67 -10 -10 -20 -37 -23
-60 -16 -123 -37 -158 -77 -122 -20 18 -21 27 -17 130 7 177 15 192 77 160z
m-3903 -242 c-4 -131 -10 -264 -13 -296 -6 -53 -8 -56 -20 -35 -60 106 -106
243 -110 331 -2 42 -1 77 4 77 4 0 15 -20 25 -45 26 -62 47 -59 48 7 0 37 -3
51 -19 91 -27 64 -25 71 15 89 81 36 77 48 70 -219z m-259 215 c-3 -7 -13 -14
-24 -16 -10 -2 -28 -7 -39 -12 -54 -22 -105 -39 -105 -34 0 4 -7 1 -15 -6 -9
-7 -18 -10 -22 -7 -3 4 -12 2 -20 -5 -7 -6 -16 -8 -20 -5 -3 4 -19 -1 -34 -10
-23 -14 -31 -15 -41 -5 -10 10 -9 15 3 28 9 8 22 16 30 17 8 2 20 6 27 11 7 4
30 9 51 11 21 1 45 6 52 11 16 10 103 31 137 33 15 1 22 -4 20 -11z m2013
-146 c6 -19 12 -44 14 -55 1 -12 12 -50 24 -84 27 -81 27 -93 -1 -87 -13 3
-34 7 -48 10 -14 3 -29 10 -35 15 -21 21 -27 296 -8 349 3 8 14 -14 24 -50 11
-36 24 -80 30 -98z m814 66 c4 -28 16 -81 26 -117 11 -36 19 -74 19 -83 0 -23
-28 -23 -52 -1 -16 14 -18 33 -18 140 0 127 12 156 25 61z m-2739 -123 c-1
-111 -4 -148 -15 -154 -9 -6 -11 -16 -5 -32 12 -39 14 -63 17 -304 4 -226 1
-255 -29 -255 -10 0 -13 31 -14 133 -1 72 -1 139 -1 147 1 13 0 171 0 210 -1
8 0 49 0 90 0 41 0 128 -1 192 -1 86 2 121 12 133 28 34 37 -6 36 -160z m3694
155 c0 -5 -5 -10 -11 -10 -5 0 -7 5 -4 10 3 6 8 10 11 10 2 0 4 -4 4 -10z
m530 -90 c0 -53 -21 -140 -47 -197 l-15 -32 -29 21 c-24 18 -29 29 -29 62 1
23 8 59 16 81 9 22 19 54 23 70 4 17 16 45 25 63 l17 33 20 -24 c13 -18 19
-41 19 -77z m-3101 -25 c0 -63 -5 -115 -10 -115 -9 0 -11 192 -2 216 11 29 13
11 12 -101z m-1209 35 c0 -44 -4 -70 -11 -70 -6 0 -13 9 -16 20 -3 11 -9 20
-13 20 -6 0 -30 66 -30 83 0 3 12 8 28 10 15 2 30 5 35 6 4 0 7 -30 7 -69z
m1344 -5 c6 -28 5 -29 -9 -11 -8 11 -15 28 -15 37 0 10 -3 26 -6 36 -3 10 1 7
9 -7 8 -14 17 -38 21 -55z m2214 -60 c-2 -118 -10 -154 -23 -102 -5 17 -2 153
5 225 0 1 4 2 10 2 6 0 9 -48 8 -125z m-3928 100 c0 -8 0 -18 0 -22 0 -5 -9
-8 -21 -8 -11 0 -24 -6 -28 -13 -4 -7 -20 -14 -34 -16 -15 -1 -30 -6 -34 -9
-3 -4 -16 -7 -28 -7 -12 0 -25 -3 -29 -7 -3 -4 -14 -8 -24 -9 -9 -1 -42 -11
-72 -23 -30 -12 -62 -21 -71 -21 -41 0 -25 64 18 75 15 3 34 12 41 18 15 12
28 15 132 23 41 3 78 11 81 16 4 6 11 8 17 4 6 -3 13 -2 17 4 10 15 35 12 35
-5z m4280 -22 c0 -27 -3 -34 -11 -26 -7 7 -9 23 -5 37 9 37 16 32 16 -11z
m-4016 18 c3 -4 1 -23 -4 -42 -6 -18 -10 -70 -11 -114 -1 -106 -18 -357 -25
-364 -3 -3 -9 1 -14 9 -5 8 -12 12 -15 8 -3 -3 5 -34 19 -69 15 -34 26 -68 26
-76 0 -23 -20 -14 -31 15 -11 28 -27 61 -46 97 -6 11 -28 61 -49 110 -21 50
-46 104 -56 120 -10 17 -18 44 -18 60 l0 30 22 -35 c13 -19 30 -51 38 -70 46
-102 76 -159 83 -160 15 0 5 29 -54 150 -114 232 -117 246 -70 279 16 12 37
21 48 22 10 0 43 8 73 19 65 21 77 23 84 11z m3440 -100 c28 -145 16 -180 -16
-48 -19 79 -24 157 -9 142 5 -6 17 -48 25 -94z m307 72 c10 -11 9 -21 -4 -47
-8 -18 -21 -59 -28 -90 -8 -31 -17 -56 -21 -56 -10 0 -10 42 -2 142 6 67 9 75
25 71 10 -3 24 -12 30 -20z m768 -10 c19 -16 22 -32 28 -133 4 -92 2 -122 -10
-152 -9 -21 -21 -38 -27 -38 -6 0 -27 12 -46 26 -33 25 -34 29 -34 92 0 80 37
222 59 222 5 0 18 -8 30 -17z m-4035 -79 c13 -37 29 -70 35 -72 8 -3 11 -61
11 -190 -1 -201 -5 -232 -26 -232 -7 0 -22 -10 -33 -22 l-20 -21 -12 29 c-15
35 -13 264 2 348 6 32 10 79 9 105 -3 75 0 135 5 129 3 -2 16 -36 29 -74z
m3671 -12 c-3 -3 -10 -1 -16 5 -8 8 -7 22 2 50 l14 38 3 -44 c2 -23 1 -46 -3
-49z m-5492 66 c18 -14 25 -72 13 -99 -5 -12 -1 -18 13 -22 17 -4 36 -36 65
-107 3 -8 10 -22 15 -30 30 -50 112 -246 114 -273 3 -54 -16 -42 -55 35 -55
111 -128 266 -128 273 0 4 -14 37 -31 73 -31 67 -50 162 -32 162 5 0 17 -6 26
-12z m4931 -97 c-4 -42 -8 -87 -9 -101 -5 -56 -4 -54 -21 -39 -9 7 -26 13 -38
14 -27 0 -24 18 14 97 16 32 31 72 35 88 4 17 11 27 17 24 6 -4 7 -34 2 -83z
m-4249 47 c-9 -39 -11 -42 -24 -33 -15 8 -14 38 1 53 21 21 30 13 23 -20z
m397 -18 c1 -19 -1 -35 -7 -35 -5 0 -10 19 -10 42 -1 50 12 44 17 -7z m1317
18 c5 -18 21 -66 36 -107 14 -40 24 -75 22 -78 -6 -5 -55 99 -63 134 -4 13
-10 26 -15 29 -12 7 -12 54 1 54 5 0 13 -15 19 -32z m3540 23 c11 -7 11 -15 0
-45 -18 -49 -29 -45 -29 9 0 46 4 51 29 36z m-5855 -9 c2 -4 20 -7 40 -6 20 1
39 -2 42 -7 3 -5 14 -9 25 -9 24 0 33 -21 24 -57 l-6 -27 -25 30 c-17 19 -27
25 -30 17 -7 -17 -54 -16 -76 0 -24 19 -35 67 -15 67 9 0 18 -3 21 -8z m941
-36 c4 -24 4 -115 1 -202 -3 -87 -5 -221 -6 -296 0 -106 -3 -138 -13 -138 -10
0 -12 56 -10 278 1 152 -2 301 -7 331 -10 57 -7 71 15 71 9 0 16 -16 20 -44z
m1777 -45 c12 -31 24 -71 28 -89 7 -29 6 -32 -11 -27 -11 4 -26 1 -34 -5 -32
-27 -35 -3 -26 185 1 27 3 28 12 11 6 -10 20 -44 31 -75z m-2179 72 c3 -5 1
-18 -4 -30 -10 -28 -68 -42 -81 -19 -12 21 -25 20 -31 -3 -3 -15 -17 -21 -53
-26 -27 -3 -61 -8 -76 -10 -26 -4 -28 -2 -28 30 0 39 -6 37 123 39 31 1 57 5
57 10 0 4 7 6 15 3 8 -4 17 -2 20 3 7 12 52 13 58 3z m1721 -174 c-1 -100 -5
-164 -12 -171 -14 -14 -24 24 -18 67 3 17 5 88 5 160 1 103 3 126 14 116 9 -9
12 -56 11 -172z m2181 146 c3 -14 7 -36 10 -50 4 -20 1 -25 -15 -25 -17 0 -20
7 -20 50 0 52 16 68 25 25z m-4204 -36 c-4 -11 -11 -20 -16 -20 -13 0 -18 27
-11 48 5 12 9 13 21 3 9 -7 11 -19 6 -31z m595 -136 c-4 -98 -10 -234 -12
-302 -2 -69 -6 -127 -9 -129 -2 -3 -41 71 -87 164 l-82 169 -2 112 c-2 123 -1
127 56 136 19 3 51 10 70 15 78 22 74 34 66 -165z m4344 155 c0 -16 -3 -19
-11 -11 -6 6 -8 16 -5 22 11 17 16 13 16 -11z m749 6 c22 -16 23 -21 18 -98
-5 -78 -43 -197 -64 -196 -4 1 -21 11 -37 24 -27 22 -29 28 -22 73 8 64 58
212 71 213 6 0 21 -7 34 -16z m-4575 -27 c18 -30 20 -56 22 -350 2 -243 0
-317 -9 -314 -7 3 -11 10 -9 16 1 6 -2 11 -7 11 -18 0 -36 69 -37 150 -1 47
-3 119 -5 160 -3 94 11 360 20 360 3 0 15 -15 25 -33z m3907 23 c15 0 10 -32
-8 -52 -25 -28 -33 -22 -33 23 0 33 3 40 16 35 9 -3 20 -6 25 -6z m-124 -59
c-4 -32 -16 -82 -27 -110 -17 -45 -18 -52 -5 -57 8 -4 15 -13 15 -21 0 -11 -5
-13 -17 -8 -10 4 -26 10 -37 13 -16 4 -18 12 -12 74 6 67 23 115 54 151 27 31
35 20 29 -42z m-4528 -81 c-1 -55 -5 -100 -10 -100 -11 0 -18 28 -20 90 -3 92
0 110 16 110 13 0 15 -17 14 -100z m-565 74 c17 -16 22 -64 8 -64 -7 0 -42 63
-42 75 0 10 19 4 34 -11z m489 -16 c7 -47 -10 -58 -27 -17 -15 36 -13 49 8 49
8 0 16 -15 19 -32z m-119 -204 c-1 -119 -6 -219 -9 -223 -9 -9 -102 -4 -121 7
-14 8 -17 39 -20 202 -2 106 1 200 6 209 6 13 25 18 78 19 l69 3 -3 -217z
m1896 206 c0 -6 9 -29 19 -53 31 -69 34 -84 14 -90 -10 -2 -26 -8 -35 -12 -16
-6 -18 1 -18 79 0 51 4 86 10 86 6 0 10 -5 10 -10z m2357 -22 c-3 -7 -5 -2 -5
12 0 14 2 19 5 13 2 -7 2 -19 0 -25z m716 20 c12 -7 26 -17 30 -23 10 -14 -2
-93 -20 -129 -9 -17 -13 -41 -9 -60 5 -31 -26 -117 -37 -100 -2 5 -4 54 -2
109 2 55 3 126 4 158 1 31 3 57 6 57 3 0 15 -6 28 -12z m649 0 c52 -31 56 -38
46 -82 -5 -22 -16 -51 -24 -63 -8 -12 -14 -28 -14 -36 0 -21 -39 -97 -51 -97
-20 0 -38 66 -33 121 5 45 43 169 52 169 1 0 12 -6 24 -12z m-5892 -34 c0 -13
-4 -24 -10 -24 -5 0 -10 14 -10 31 0 17 4 28 10 24 6 -3 10 -17 10 -31z m98
-177 c2 -188 -2 -230 -22 -199 -6 10 -9 136 -7 295 1 90 4 118 14 115 9 -4 13
-57 15 -211z m771 -53 c1 -136 4 -251 7 -256 6 -10 -12 -28 -28 -28 -4 0 -7
123 -5 274 1 199 5 272 13 265 7 -6 12 -90 13 -255z m-1049 141 c23 -55 51
-116 61 -136 11 -21 17 -43 14 -50 -3 -8 -6 -30 -8 -49 -3 -37 -22 -49 -55
-34 -9 4 -25 8 -35 9 -10 1 -22 6 -27 11 -8 8 -16 232 -11 339 1 40 11 26 61
-90z m5220 85 c0 -11 -4 -20 -10 -20 -5 0 -10 9 -10 20 0 11 5 20 10 20 6 0
10 -9 10 -20z m490 11 c0 -6 -4 -13 -10 -16 -5 -3 -10 1 -10 9 0 9 5 16 10 16
6 0 10 -4 10 -9z m-214 -48 c-10 -10 -19 5 -10 18 6 11 8 11 12 0 2 -7 1 -15
-2 -18z m-3507 -93 c22 -52 41 -101 41 -108 0 -22 -20 -12 -31 16 -6 15 -17
41 -25 57 -31 60 -54 127 -48 137 9 15 18 1 63 -102z m-1809 13 c-1 -81 -2
-86 -16 -68 -10 13 -13 31 -10 53 3 17 9 48 12 67 3 19 8 35 10 35 2 0 4 -39
4 -87z m4870 36 c0 -15 -4 -15 -25 -6 -21 11 -25 24 -16 54 3 10 41 -35 41
-48z m1150 36 c36 -18 48 -56 28 -88 -8 -12 -25 -49 -38 -82 -45 -116 -50
-113 -50 23 0 80 4 129 12 142 15 24 12 24 48 5z m-2275 -5 c5 -7 11 -8 19 -1
6 5 34 9 61 8 l50 -2 3 -37 c4 -42 4 -42 -98 -53 -116 -13 -115 -14 -118 23
-4 38 10 59 41 65 12 2 25 5 29 6 4 0 10 -4 13 -9z m1425 -91 c0 -76 -3 -100
-12 -96 -21 7 -13 197 7 197 3 0 5 -45 5 -101z m-4781 4 c4 -37 7 -115 7 -173
-1 -96 -3 -105 -20 -105 -17 0 -19 10 -21 110 -5 222 17 332 34 168z m3590 73
c8 -5 16 -4 21 4 5 9 9 9 14 1 4 -6 26 -11 50 -11 30 0 48 -6 61 -20 24 -27
12 -30 -110 -27 -87 2 -100 5 -103 20 -2 10 -2 24 1 31 5 14 45 15 66 2z
m-1204 -15 c-3 -6 -14 -11 -23 -11 -15 1 -15 2 2 15 21 16 32 13 21 -4z m2338
-3 c-4 -13 -7 -49 -5 -80 2 -58 -4 -68 -26 -46 -16 16 -15 68 3 112 17 39 42
52 28 14z m-2263 2 c8 -5 12 -12 9 -15 -8 -8 -39 5 -39 16 0 11 11 11 30 -1z
m2544 -72 c-7 -89 -18 -128 -34 -128 -16 0 -12 146 5 180 27 52 36 36 29 -52z
m-4454 20 c0 -8 68 -156 116 -253 21 -44 23 -58 18 -117 -7 -64 -15 -81 -29
-58 -4 6 -11 8 -16 4 -6 -3 -18 -2 -27 2 -9 4 -35 12 -57 18 l-40 11 -3 225
-2 225 20 -25 c11 -14 20 -28 20 -32z m1330 31 c0 -6 -4 -7 -10 -4 -5 3 -10
11 -10 16 0 6 5 7 10 4 6 -3 10 -11 10 -16z m724 11 c-6 -6 -21 -6 -39 -1 -30
9 -30 9 10 10 25 1 36 -2 29 -9z m636 -17 c0 -42 -10 -50 -65 -58 -27 -4 -63
-13 -80 -20 -37 -16 -98 -6 -103 17 -3 15 29 32 55 29 18 -2 142 39 149 50 3
5 14 9 25 9 14 0 19 -7 19 -27z m1810 14 c0 -7 -6 -21 -13 -32 -13 -16 -14
-15 -9 13 4 31 22 46 22 19z m697 -34 c49 -37 54 -58 31 -118 -32 -83 -72
-155 -83 -152 -16 6 -5 297 11 297 3 0 21 -12 41 -27z m-664 -51 c-3 -26 -11
-54 -19 -62 -8 -10 -11 -38 -9 -87 2 -40 0 -73 -5 -73 -17 0 -51 53 -40 64 5
5 10 24 10 41 0 29 16 89 39 148 16 42 31 23 24 -31z m-2816 16 c5 -7 14 -29
20 -49 9 -31 8 -38 -9 -48 -26 -16 -35 -8 -43 39 -4 22 -12 43 -18 47 -7 4 -3
9 9 14 27 11 30 10 41 -3z m123 -47 c0 -58 -1 -60 -26 -57 -25 3 -44 20 -44
41 0 5 5 4 11 -2 6 -6 18 -9 25 -6 16 6 19 39 4 48 -18 11 -11 35 10 35 18 0
20 -7 20 -59z m198 50 c10 -6 10 -10 -3 -21 -12 -10 -15 -10 -15 5 0 14 -3 15
-14 6 -9 -8 -16 -8 -20 -2 -5 8 5 14 34 20 3 0 11 -3 18 -8z m2962 -33 c0 -24
-3 -53 -6 -65 -7 -26 -32 -31 -40 -8 -7 17 26 115 38 115 4 0 8 -19 8 -42z
m-3510 23 c0 -5 3 -18 6 -28 6 -16 5 -16 -9 2 -19 23 -21 35 -7 35 6 0 10 -4
10 -9z m922 4 c3 -3 2 -20 -1 -38 -5 -25 -13 -33 -41 -41 -19 -5 -38 -14 -41
-18 -3 -5 -20 -10 -38 -13 -18 -2 -38 -8 -44 -13 -10 -8 -95 -32 -112 -32 -4
0 -5 10 -3 23 2 15 11 23 28 25 14 2 32 10 41 18 9 8 18 12 21 9 3 -3 21 11
41 30 20 19 43 35 51 35 8 0 18 5 21 10 6 10 68 14 77 5z m-1002 -15 c0 -5 -4
-10 -10 -10 -5 0 -10 5 -10 10 0 6 5 10 10 10 6 0 10 -4 10 -10z m3450 6 c0
-3 -4 -8 -10 -11 -5 -3 -10 -1 -10 4 0 6 5 11 10 11 6 0 10 -2 10 -4z m-4015
-57 l26 -50 -28 3 c-26 3 -28 7 -31 51 -2 26 -1 47 2 47 3 0 17 -23 31 -51z
m-1325 24 c1 -10 3 -58 6 -106 6 -91 0 -142 -15 -132 -13 8 -14 255 -1 255 5
0 10 -8 10 -17z m60 7 c0 -5 15 -42 34 -82 45 -97 76 -169 76 -177 -2 -26
-130 225 -130 254 0 8 5 15 10 15 6 0 10 -4 10 -10z m2312 -32 c-16 -16 -35 3
-26 26 6 16 8 16 22 2 13 -12 14 -18 4 -28z m3459 -11 l57 -52 -5 -110 c-3
-60 -9 -114 -13 -119 -5 -5 -27 0 -52 12 -80 40 -78 35 -77 173 1 67 3 129 6
136 9 23 26 14 84 -40z m-3731 -14 c0 -7 -6 -13 -14 -13 -10 0 -14 10 -14 31
1 29 2 30 15 14 7 -11 13 -25 13 -32z m1061 20 c3 -120 -3 -550 -8 -597 -4
-46 -10 -60 -24 -63 -11 -3 -19 -9 -19 -14 0 -5 -9 -9 -20 -9 -14 0 -18 5 -13
16 5 14 3 15 -15 5 -28 -15 -40 -14 -44 5 -2 11 -17 17 -52 20 -27 2 -52 6
-55 10 -8 8 -8 429 0 517 7 78 19 92 87 102 51 8 55 5 55 -32 1 -62 -14 -315
-24 -418 -13 -128 -10 -170 11 -170 12 0 15 22 16 130 1 72 4 157 8 190 10
102 15 147 21 225 8 89 18 110 50 110 20 0 25 -5 26 -27z m187 15 c6 -8 8 -45
3 -99 -3 -48 -3 -97 0 -110 9 -30 12 -10 10 64 -2 51 1 58 21 66 13 5 25 5 28
0 3 -4 4 -80 3 -169 -2 -104 0 -160 7 -160 6 0 10 45 10 118 0 65 3 122 7 125
4 4 7 24 7 45 1 33 4 37 28 37 14 1 34 -5 44 -12 15 -11 17 -31 14 -195 -7
-330 -3 -373 30 -333 10 12 10 18 0 29 -18 23 -7 466 12 466 6 0 28 -10 51
-22 l40 -23 -8 -230 c-4 -126 -10 -257 -14 -290 l-6 -60 -97 -2 c-59 -1 -98 2
-98 8 0 5 -8 9 -17 7 -13 -2 -17 3 -15 16 3 17 2 18 -12 6 -25 -20 -71 3 -57
29 6 10 8 42 4 70 -5 45 -7 49 -19 34 -24 -34 -33 25 -27 201 3 103 1 166 -5
166 -12 0 -27 -322 -17 -379 7 -40 28 -55 38 -28 8 17 8 -44 1 -70 -7 -25 -24
-32 -24 -10 0 13 -5 14 -82 18 -49 2 -56 7 -37 26 12 12 15 81 18 407 1 121 6
228 12 238 16 30 79 22 91 -12 4 -11 9 -7 17 13 11 29 23 34 39 15z m1502 -44
c0 -36 -4 -53 -11 -49 -6 4 -8 26 -5 53 5 55 5 52 11 52 3 0 5 -25 5 -56z
m-3906 -37 c21 -45 48 -94 58 -110 l20 -27 -34 -15 c-18 -8 -45 -25 -60 -37
-15 -12 -29 -20 -31 -17 -3 2 -7 68 -10 147 -4 107 -3 142 6 141 7 0 30 -37
51 -82z m722 -124 c-1 -131 -3 -155 -18 -170 -17 -16 -18 -15 -19 22 -1 22 -1
44 0 49 12 62 15 212 6 249 -5 18 -2 33 6 44 13 14 15 13 20 -13 3 -16 5 -97
5 -181z m3930 180 c-7 -26 -13 -71 -15 -101 -1 -8 -7 -12 -13 -10 -19 7 -20
59 -1 101 19 43 38 50 29 10z m-416 7 c20 -12 16 -122 -5 -154 -11 -17 -14
-35 -9 -65 5 -33 4 -41 -9 -41 -25 0 -30 18 -27 89 1 36 3 86 4 111 2 64 14
80 46 60z m-3356 -16 c8 -21 6 -22 -31 -33 -24 -7 -34 -5 -47 10 -22 26 -21
27 22 32 20 2 40 4 43 5 4 1 10 -5 13 -14z m134 -62 c30 -34 28 -95 -4 -100
-26 -4 -38 22 -24 48 14 27 12 56 -5 70 -8 7 -15 20 -14 29 0 13 2 13 12 -3 7
-10 22 -30 35 -44z m3142 48 c0 -5 -5 -10 -11 -10 -5 0 -7 5 -4 10 3 6 8 10
11 10 2 0 4 -4 4 -10z m-2574 -11 c3 -6 17 -9 30 -6 21 4 24 0 24 -25 0 -21
-7 -31 -27 -41 -16 -6 -30 -14 -33 -17 -3 -3 -16 -11 -29 -18 -20 -12 -25 -12
-32 0 -6 9 -9 10 -9 1 0 -13 -71 -63 -89 -63 -5 0 -11 12 -14 26 -4 21 4 36
35 70 22 24 46 44 53 44 7 0 18 7 25 15 7 8 16 13 20 10 5 -3 11 -1 15 5 8 13
22 13 31 -1z m359 -221 c-4 -128 -6 -242 -6 -253 4 -119 1 -124 -62 -120 -29
2 -60 4 -69 4 -30 2 -38 63 -28 211 9 140 27 302 36 333 3 9 15 17 27 17 12 1
40 9 62 20 22 11 41 19 43 20 2 0 1 -105 -3 -232z m783 195 c4 -39 -4 -40 -52
-12 -53 31 -47 49 13 46 33 -2 36 -5 39 -34z m232 -4 c0 -19 -5 -29 -15 -29
-8 0 -15 4 -15 9 0 5 -11 12 -25 15 -14 4 -25 11 -25 16 0 15 30 27 56 22 19
-3 24 -11 24 -33z m-2480 -13 c0 -5 -7 -1 -15 10 -8 10 -14 24 -14 29 0 6 6 1
14 -9 8 -11 15 -24 15 -30z m2669 28 c11 -11 -15 -17 -84 -22 -61 -4 -75 -2
-75 10 0 8 2 17 5 19 5 5 148 -1 154 -7z m-3996 -89 c36 -72 39 -88 12 -65
-12 10 -18 10 -30 0 -23 -19 -29 -6 -33 78 -5 90 1 88 51 -13z m4317 54 c0
-11 -27 -12 -34 0 -3 4 -3 11 0 14 8 8 34 -3 34 -14z m-7014 -3 c1 0 5 -20 9
-43 5 -35 4 -43 -9 -43 -26 0 -121 22 -129 30 -10 9 45 50 67 50 9 0 16 5 16
11 0 8 36 4 46 -5z m2078 -1 c3 -8 1 -15 -4 -15 -6 0 -10 7 -10 15 0 8 2 15 4
15 2 0 6 -7 10 -15z m2644 3 c-6 -16 -36 -34 -44 -25 -9 9 15 37 33 37 8 0 13
-5 11 -12z m3600 -82 l-3 -35 -25 19 -25 19 25 48 25 48 3 -32 c2 -18 2 -48 0
-67z m261 52 c18 -16 31 -35 29 -45 -6 -33 -76 -158 -90 -158 -10 0 -12 24
-11 110 4 152 3 151 72 93z m-3264 -75 c-7 -117 -10 -144 -19 -200 -4 -21 -7
-73 -8 -116 -1 -86 -10 -100 -54 -88 l-29 8 3 218 c2 200 4 220 21 237 16 14
71 43 90 47 2 1 0 -47 -4 -106z m-1275 76 c0 -6 -4 -7 -10 -4 -5 3 -10 11 -10
16 0 6 5 7 10 4 6 -3 10 -11 10 -16z m2830 11 c0 -12 -29 -19 -65 -16 -54 5
-60 8 -30 15 44 10 95 10 95 1z m1035 -7 c-4 -10 -15 -60 -25 -111 -25 -128
-38 -139 -41 -36 -2 59 26 137 55 156 17 11 19 10 11 -9z m-3423 -54 c13 -44
8 -55 -19 -44 -10 5 -21 8 -25 7 -4 -1 -15 12 -25 28 -9 17 -21 30 -25 30 -4
0 -8 6 -8 14 0 17 58 26 77 12 7 -4 18 -26 25 -47z m-482 5 c11 -26 20 -48 20
-50 0 -10 -29 -2 -32 8 -4 10 -10 10 -32 0 -15 -6 -38 -12 -52 -12 -24 0 -24
0 -8 28 18 28 64 72 76 72 4 0 16 -21 28 -46z m166 1 c21 -60 19 -67 -18 -63
-32 3 -34 5 -69 79 -10 22 -7 25 36 24 34 0 38 -3 51 -40z m3484 3 c0 -23 -3
-29 -9 -19 -5 7 -7 21 -6 30 5 22 4 21 10 21 3 0 5 -15 5 -32z m340 0 c-1 -25
-26 -65 -36 -55 -8 8 15 77 27 77 5 0 9 -10 9 -22z m-1322 -4 c6 -2 12 -8 12
-13 0 -13 -62 -43 -69 -34 -3 5 -15 13 -25 19 -57 31 4 52 82 28z m1018 -52
c-11 -10 -14 3 -7 38 l6 35 3 -33 c2 -19 1 -36 -2 -40z m-2766 25 c0 -33 -2
-34 -66 -67 -16 -8 -31 -17 -34 -20 -7 -7 -47 -30 -85 -48 -16 -9 -42 -23 -57
-34 -39 -27 -50 -23 -46 19 3 32 9 40 47 60 24 12 47 21 51 18 4 -2 17 6 30
20 12 13 35 27 51 30 15 4 33 13 40 22 12 14 44 31 62 32 4 1 7 -14 7 -32z
m260 21 c4 -109 -6 -394 -14 -407 -6 -9 -32 -7 -61 4 -42 15 -71 23 -90 24
-46 2 -60 7 -67 21 -4 8 -7 69 -6 135 0 109 2 122 22 141 11 12 32 25 44 29
l24 7 -7 -156 c-6 -116 -5 -156 4 -156 17 0 19 12 25 173 2 82 6 150 8 151 2
1 21 11 43 23 45 25 75 29 75 11z m1150 -3 c35 -18 46 -61 36 -138 -3 -29 -9
-129 -12 -223 -6 -158 -6 -171 11 -178 26 -10 30 -1 17 43 -13 43 -16 134 -4
145 7 7 9 54 11 229 1 75 2 77 26 77 14 0 25 -4 25 -8 0 -4 14 -13 31 -19 l31
-12 -6 -93 c-3 -51 -8 -136 -11 -188 -9 -189 -16 -230 -34 -230 -9 0 -22 5
-29 12 -6 6 -39 12 -73 13 -75 2 -94 20 -84 75 10 47 19 239 24 483 1 31 3 32
41 12z m-2010 -20 c0 -14 -4 -25 -10 -25 -5 0 -10 11 -10 25 0 14 5 25 10 25
6 0 10 -11 10 -25z m2475 15 c8 -13 -15 -13 -35 0 -12 8 -11 10 7 10 12 0 25
-4 28 -10z m-2949 -29 c-4 -6 -14 -11 -22 -11 -12 0 -13 4 -3 21 7 14 14 18
21 11 6 -6 7 -15 4 -21z m3034 19 c0 -5 -4 -10 -10 -10 -5 0 -10 5 -10 10 0 6
5 10 10 10 6 0 10 -4 10 -10z m1827 -35 l49 -44 -4 -63 c-3 -35 -11 -73 -19
-84 l-14 -22 -49 24 c-40 19 -50 29 -50 48 0 14 -4 28 -10 31 -5 3 -10 -3 -10
-14 0 -25 -13 -27 -30 -6 -9 11 -8 22 6 54 19 43 38 46 28 5 -4 -14 -2 -24 5
-24 6 0 11 19 11 45 0 44 16 95 31 95 4 0 29 -20 56 -45z m-4927 -55 c0 -44
-2 -80 -5 -80 -3 0 -14 21 -26 48 -11 26 -25 54 -29 63 -10 20 -3 29 22 29 10
0 18 5 18 10 0 6 5 10 10 10 6 0 10 -33 10 -80z m4346 53 c3 -10 12 -32 20
-49 14 -28 14 -34 -10 -88 -14 -31 -28 -72 -32 -91 -3 -19 -11 -35 -17 -35 -6
0 -8 24 -4 68 4 37 7 100 7 140 0 58 3 72 15 72 9 0 18 -8 21 -17z m-7946 -66
c64 -12 121 -30 127 -41 10 -14 5 -171 -16 -626 -14 -277 -41 -897 -42 -945 0
-22 -3 -35 -5 -29 -5 12 -41 203 -49 264 -3 19 -8 49 -11 65 -2 17 -23 138
-45 269 -36 220 -206 1001 -229 1054 -7 16 -18 22 -40 22 -20 0 -29 4 -24 11
3 6 17 9 30 6 15 -3 24 0 24 9 0 9 34 4 128 -21 70 -19 138 -36 152 -38z
m7176 57 c21 -10 34 -24 34 -35 0 -18 -1 -18 -34 2 -18 10 -41 17 -50 13 -18
-7 -19 -4 -10 20 8 20 18 20 60 0z m-4056 -36 c23 -50 27 -79 8 -60 -11 11
-38 78 -38 95 0 18 13 3 30 -35z m3940 18 c0 -19 -31 -29 -64 -20 -25 6 -32
15 -21 25 2 3 23 6 45 7 30 2 40 -1 40 -12z m-173 -2 c-3 -3 -12 -4 -19 -1 -8
3 -5 6 6 6 11 1 17 -2 13 -5z m-2890 -62 c3 -43 -7 -92 -18 -92 -6 0 -8 9 -4
20 4 11 1 36 -5 56 -14 41 -6 74 13 55 7 -7 13 -24 14 -39z m3884 -49 c-2
-104 -9 -122 -35 -94 -11 12 -15 25 -10 33 5 7 9 29 9 48 1 39 24 114 32 106
3 -3 5 -45 4 -93z m-3694 73 c4 -3 0 -6 -9 -6 -8 0 -23 -9 -33 -20 -25 -28
-35 -25 -35 11 0 29 1 30 36 26 19 -3 38 -8 41 -11z m553 -117 l0 -119 -47 4
c-27 2 -53 4 -60 5 -8 1 -10 24 -7 74 4 82 -10 65 -21 -26 l-7 -57 -77 6 c-42
3 -94 9 -115 14 -22 5 -43 7 -47 4 -4 -2 -10 0 -13 5 -6 9 56 51 74 51 5 0 12
-9 15 -20 9 -28 28 -13 22 16 -3 18 3 30 23 44 16 11 32 20 37 20 4 0 25 11
45 25 20 14 46 25 56 25 11 0 26 7 33 17 16 19 70 43 81 37 5 -3 8 -59 8 -125z
m2525 121 c3 -5 1 -10 -4 -10 -6 0 -11 5 -11 10 0 6 2 10 4 10 3 0 8 -4 11
-10z m-547 -37 c3 -21 -1 -23 -36 -23 -27 0 -45 7 -60 23 -12 13 -20 26 -18
28 3 3 29 2 58 -1 45 -4 53 -8 56 -27z m-3049 5 c11 -31 2 -60 -18 -56 -22 4
-27 78 -5 78 8 0 18 -10 23 -22z m155 -15 c36 -33 37 -36 20 -47 -11 -6 -44
-11 -74 -11 -53 0 -55 1 -61 30 -13 74 49 90 115 28z m71 7 c19 -37 19 -40 -3
-40 -14 0 -18 8 -19 35 -1 43 2 43 22 5z m2517 3 c12 -11 15 -27 12 -64 -3
-30 0 -49 6 -49 5 0 10 20 10 45 0 52 11 56 54 22 l29 -23 -3 -110 c-1 -60 -3
-122 -5 -139 -1 -16 -3 -63 -4 -102 l-1 -72 -32 6 c-18 3 -37 11 -41 17 -4 6
-6 87 -3 179 3 139 2 166 -9 157 -10 -8 -14 -45 -14 -138 -1 -70 -4 -142 -7
-159 -6 -32 -26 -44 -39 -22 -4 6 -13 8 -21 5 -10 -4 -14 4 -15 32 -1 49 3
306 5 357 5 92 4 88 34 80 15 -3 35 -13 44 -22z m428 10 c0 -7 -7 -13 -15 -13
-8 0 -15 -4 -15 -10 0 -13 -47 -13 -55 0 -4 6 -4 17 -1 25 7 18 86 16 86 -2z
m-3332 -13 c3 -8 1 -12 -3 -8 -5 4 -14 3 -22 -4 -17 -13 -39 4 -28 22 9 15 47
8 53 -10z m3430 2 c2 -7 -7 -12 -22 -12 -27 0 -35 15 -13 23 17 7 30 3 35 -11z
m112 -2 c0 -5 -18 -10 -40 -10 -22 0 -40 5 -40 10 0 6 18 10 40 10 22 0 40 -4
40 -10z m1085 -167 c-3 -150 -7 -184 -19 -172 -4 4 -8 174 -7 286 1 50 4 61
15 57 12 -5 14 -34 11 -171z m564 66 c-1 -38 -5 -72 -10 -74 -4 -3 -26 4 -48
16 -38 19 -41 24 -41 63 0 23 9 55 20 74 l20 33 30 -21 c29 -21 30 -25 29 -91z
m-5267 79 c-7 -7 -12 -8 -12 -2 0 6 3 14 7 17 3 4 9 5 12 2 2 -3 -1 -11 -7
-17z m998 -23 c0 -27 -35 -55 -92 -76 -21 -7 -38 -17 -38 -21 0 -4 -11 -8 -25
-8 -14 0 -25 4 -25 8 0 15 54 60 90 75 19 8 43 24 54 35 22 25 36 20 36 -13z
m3367 5 c2 -8 -1 -21 -6 -29 -14 -21 -41 3 -34 30 6 23 36 22 40 -1z m387 -63
c-4 -37 -11 -67 -15 -67 -11 0 -12 133 -2 144 16 16 23 -16 17 -77z m-6240 37
c26 -10 20 -44 -8 -44 -17 0 -25 7 -28 25 -5 26 5 31 36 19z m6316 -4 c0 -5
-4 -10 -10 -10 -5 0 -10 5 -10 10 0 6 5 10 10 10 6 0 10 -4 10 -10z m-6060 -9
c0 -5 -6 -14 -14 -20 -11 -9 -16 -9 -21 0 -4 6 -1 15 6 20 18 11 29 11 29 0z
m129 -13 c31 -19 25 -27 -16 -23 -21 1 -55 3 -75 4 -42 1 -50 17 -15 30 28 12
79 6 106 -11z m4881 4 c0 -16 -42 -32 -86 -32 -38 0 -48 25 -15 38 33 12 101
8 101 -6z m-5158 -299 c-1 -256 -4 -299 -17 -312 -15 -15 -16 9 -11 277 6 279
11 351 24 337 4 -3 6 -139 4 -302z m69 294 c-1 -12 -15 -9 -19 4 -3 6 1 10 8
8 6 -3 11 -8 11 -12z m4461 -9 c16 -18 19 -32 15 -69 -5 -42 -4 -46 12 -42 13
3 17 11 14 24 -8 30 6 89 22 89 9 0 11 -7 7 -22 -4 -17 -2 -20 11 -15 17 6 41
-15 29 -27 -4 -4 0 -6 8 -4 8 2 19 -7 24 -19 7 -15 17 -21 27 -18 9 3 19 -1
22 -9 3 -8 22 -20 41 -27 20 -7 36 -18 36 -25 0 -6 8 -11 18 -10 15 1 17 -11
16 -116 0 -112 -7 -146 -22 -121 -4 6 -21 14 -37 16 l-30 4 -2 99 c-1 54 -2
106 -3 113 0 10 -3 11 -9 5 -5 -5 -12 -56 -16 -114 -3 -57 -8 -106 -10 -108
-2 -2 -9 -1 -16 3 -8 6 -10 36 -5 114 7 102 6 105 -10 82 -13 -19 -15 -28 -6
-42 6 -10 8 -20 3 -23 -5 -3 -11 -32 -15 -64 l-7 -59 -41 0 c-23 0 -47 5 -53
11 -14 15 -13 92 2 107 9 9 9 16 0 30 -9 14 -9 21 1 31 16 16 15 65 -2 71 -10
4 -15 -13 -21 -76 -5 -45 -9 -102 -10 -127 -1 -32 -5 -45 -16 -45 -12 0 -14
27 -12 165 1 91 3 182 3 203 0 43 5 45 32 15z m103 12 c3 -5 1 -10 -4 -10 -6
0 -11 5 -11 10 0 6 2 10 4 10 3 0 8 -4 11 -10z m236 0 c6 0 8 -4 5 -9 -8 -12
-46 -2 -46 11 0 6 7 7 16 4 9 -3 20 -6 25 -6z m137 -7 c-3 -14 -11 -17 -43
-14 -46 3 -58 9 -50 22 4 5 26 9 51 9 38 0 45 -3 42 -17z m-5308 -8 c0 -8 -4
-15 -10 -15 -5 0 -10 7 -10 15 0 8 5 15 10 15 6 0 10 -7 10 -15z m2188 3 c-7
-20 -68 -23 -68 -4 0 12 10 16 36 16 24 0 34 -4 32 -12z m3375 -6 c23 -25 6
-52 -22 -35 -11 7 -27 10 -36 7 -24 -10 -18 22 8 34 30 15 32 14 50 -6z m736
-78 c1 -66 -1 -85 -11 -82 -17 6 -26 75 -15 113 15 52 16 55 20 55 3 0 5 -39
6 -86z m-5633 -188 c-1 -162 -5 -256 -11 -256 -6 0 -9 82 -8 228 2 125 3 242
3 260 0 18 4 31 8 28 5 -3 8 -120 8 -260z m134 253 c0 -7 10 -9 25 -7 14 3 28
1 31 -3 8 -13 -23 -22 -43 -13 -10 4 -21 6 -25 6 -5 -1 -8 5 -8 13 0 8 5 15
10 15 6 0 10 -5 10 -11z m5800 -25 c0 -19 -5 -67 -11 -105 -6 -39 -12 -85 -13
-102 -2 -18 -4 -41 -5 -52 l-2 -20 -9 20 c-10 26 1 263 14 284 14 22 26 10 26
-25z m492 4 c75 -61 88 -76 88 -107 0 -16 -4 -33 -10 -36 -10 -6 -72 24 -78
38 -2 4 -11 7 -21 7 -27 0 -41 21 -41 61 0 37 8 69 17 69 2 0 23 -15 45 -32z
m-6332 12 c0 -5 -4 -10 -10 -10 -5 0 -10 5 -10 10 0 6 5 10 10 10 6 0 10 -4
10 -10z m4886 -15 c20 -15 13 -18 -23 -9 -13 4 -23 10 -23 15 0 14 24 11 46
-6z m566 -20 c-2 -14 -9 -25 -14 -25 -6 0 -7 7 -4 16 3 9 6 22 6 30 0 9 4 13
9 10 4 -3 6 -17 3 -31z m-5136 -11 c2 -41 -7 -75 -17 -68 -15 9 -11 106 4 102
6 -3 13 -18 13 -34z m4104 -4 c4 -30 0 -40 -19 -40 -21 0 -34 53 -17 70 12 12
33 -6 36 -30z m1501 28 c23 -12 24 -16 16 -76 -9 -67 -30 -77 -26 -11 2 21 0
41 -4 45 -7 7 -8 -8 -11 -126 -2 -48 -10 -70 -28 -70 -7 0 -8 18 -4 53 4 28 9
80 11 115 4 57 10 82 19 82 2 0 14 -6 27 -12z m-1437 -4 c20 -8 9 -34 -15 -34
-18 0 -26 20 -12 33 8 8 8 8 27 1z m-4524 -24 c0 -5 -5 -10 -11 -10 -5 0 -7 5
-4 10 3 6 8 10 11 10 2 0 4 -4 4 -10z m4708 4 c39 -11 24 -21 -33 -23 -51 -1
-65 6 -48 22 8 9 50 9 81 1z m-338 -25 c0 -6 -4 -7 -10 -4 -5 3 -10 11 -10 16
0 6 5 7 10 4 6 -3 10 -11 10 -16z m455 11 c-3 -5 -17 -10 -31 -10 -13 0 -24 5
-24 10 0 6 14 10 31 10 17 0 28 -4 24 -10z m-5423 -61 c7 -31 9 -239 2 -239
-4 0 -34 62 -34 72 0 5 -9 28 -20 50 -11 23 -20 46 -20 50 0 5 -9 28 -20 50
-33 69 -29 77 32 63 48 -10 53 -14 60 -46z m1687 26 c39 -40 38 -48 -5 -37
-16 5 -41 7 -56 6 -16 -2 -28 1 -28 6 0 4 -10 8 -22 7 -13 0 -46 3 -75 7 -44
7 -53 5 -62 -11 -10 -17 -10 -17 -11 3 0 29 14 33 100 31 48 -2 75 2 82 10 18
22 41 15 77 -22z m4691 28 c0 -5 -5 -15 -10 -23 -8 -12 -10 -11 -10 8 0 12 5
22 10 22 6 0 10 -3 10 -7z m-6296 -28 c3 -9 5 -70 5 -137 0 -144 -17 -149 -24
-7 -3 52 -8 104 -10 117 -9 37 16 60 29 27z m218 -85 c25 -52 56 -115 67 -140
l21 -45 -30 -25 c-17 -14 -30 -31 -30 -37 0 -7 -6 -13 -12 -13 -7 0 -32 -19
-56 -41 -24 -23 -45 -40 -47 -38 -7 8 -7 37 -6 237 l1 203 22 -3 c18 -2 34
-25 70 -98z m186 -48 c-3 -118 -11 -139 -35 -92 -49 98 -62 136 -56 177 5 39
7 42 33 37 20 -5 29 -1 34 13 17 42 28 -19 24 -135z m895 131 c3 -10 4 -101 2
-203 -2 -102 -4 -208 -4 -236 0 -34 -5 -55 -16 -64 -15 -12 -16 10 -13 253 2
197 6 267 15 267 6 0 14 -8 16 -17z m527 11 c0 -3 -10 -23 -22 -44 -34 -59
-84 -54 -62 5 9 21 84 57 84 39z m4769 -8 c9 -10 9 -30 1 -77 -6 -35 -13 -73
-14 -84 -5 -32 -7 -32 -20 5 -8 22 -20 36 -33 38 -18 3 -20 7 -13 31 8 30 51
101 61 101 4 0 12 -6 18 -14z m573 -13 c18 -16 25 -43 10 -43 -19 0 -59 25
-77 48 l-18 25 33 -7 c19 -3 42 -14 52 -23z m-6916 -20 c8 -21 21 -51 29 -68
66 -147 72 -165 58 -165 -5 0 -21 31 -37 68 -17 37 -42 94 -58 126 -31 65 -33
76 -17 76 5 0 17 -17 25 -37z m324 -12 c45 -2 69 -24 51 -45 -7 -8 -23 -18
-34 -22 -12 -4 -33 -15 -46 -25 -45 -35 -56 -26 -54 43 3 114 0 106 26 77 15
-18 33 -27 57 -28z m5650 -38 c0 -34 -4 -64 -9 -68 -15 -9 -17 5 -13 84 5 90
22 77 22 -16z m-6493 45 c-3 -8 -6 -5 -6 6 -1 11 2 17 5 13 3 -3 4 -12 1 -19z
m6937 16 c11 -4 16 -19 16 -50 0 -46 -26 -124 -41 -124 -10 0 -12 139 -3 164
7 18 7 18 28 10z m-6849 -76 c8 -16 11 -28 6 -28 -10 0 -50 88 -42 95 3 4 9
-4 14 -17 5 -13 15 -35 22 -50z m5424 56 c3 -2 -3 -12 -12 -21 -13 -13 -19
-14 -31 -3 -9 7 -16 9 -16 4 0 -4 -5 -3 -12 4 -7 7 -20 12 -31 12 -10 0 -16 4
-13 9 6 9 106 4 115 -5z m-4009 -45 c0 -21 -4 -39 -8 -39 -5 0 -9 20 -10 45 0
25 4 43 9 39 5 -3 9 -23 9 -45z m472 24 c5 -38 -1 -63 -15 -63 -8 0 -12 16
-12 45 0 50 20 63 27 18z m3378 15 c0 -5 -2 -8 -5 -8 -3 0 -21 0 -40 0 -19 0
-35 4 -35 8 0 4 18 8 40 7 22 0 40 -3 40 -7z m287 -3 c6 -21 -14 -31 -54 -27
-34 3 -43 8 -43 23 0 17 6 19 47 16 26 -1 48 -7 50 -12z m73 7 c0 -10 -41 -35
-47 -28 -11 11 7 36 27 36 11 0 20 -3 20 -8z m184 -12 c5 -5 6 -20 2 -34 -6
-24 -10 -25 -57 -22 -58 4 -67 10 -53 34 23 37 79 48 108 22z m136 -22 c0 -47
-13 -78 -24 -59 -4 6 -22 11 -41 11 -25 0 -35 5 -40 20 -12 37 2 56 42 58 21
2 39 5 42 7 13 14 21 0 21 -37z m1334 11 c20 -12 36 -26 36 -32 0 -7 -4 -7
-12 1 -7 7 -27 12 -45 12 -26 0 -33 4 -33 20 0 25 10 25 54 -1z m-6121 -20
c34 -5 72 -11 85 -13 23 -3 38 -13 31 -20 -2 -2 -22 -1 -44 3 -22 4 -60 4 -85
0 -35 -6 -48 -4 -57 9 -16 19 -17 46 -3 37 6 -4 39 -11 73 -16z m4856 -3 l22
-23 -23 -7 c-41 -10 -48 -7 -48 24 0 37 18 39 49 6z m1411 14 c0 -5 -7 -10
-15 -10 -8 0 -15 5 -15 10 0 6 7 10 15 10 8 0 15 -4 15 -10z m-7501 -212 c1
-27 -3 -48 -9 -48 -6 0 -9 50 -8 133 1 132 1 132 9 47 4 -47 7 -106 8 -132z
m1121 168 c0 -49 -15 -52 -17 -5 -2 21 2 39 7 39 6 0 10 -15 10 -34z m6006 10
c1 0 -2 -43 -6 -94 -5 -73 -10 -95 -25 -106 -13 -10 -17 -21 -12 -43 7 -35 -1
-73 -16 -73 -7 0 -7 42 -2 128 4 70 7 134 7 142 0 8 1 25 4 38 4 19 9 22 27
16 12 -3 23 -7 23 -8z m-4914 -13 c10 -9 18 -22 18 -28 0 -13 -28 -30 -44 -26
-14 3 -36 -21 -36 -40 0 -11 -5 -19 -11 -19 -6 0 -49 -34 -95 -75 -46 -41 -92
-75 -102 -75 -20 -1 -67 -38 -75 -62 -5 -15 -41 -40 -79 -54 -10 -3 -18 -12
-18 -19 0 -7 -16 -26 -35 -42 -19 -17 -35 -34 -35 -39 0 -5 -20 -22 -45 -39
-24 -16 -47 -40 -50 -53 -4 -17 -10 -22 -25 -17 -14 4 -19 0 -22 -17 -2 -17
-9 -22 -26 -20 -18 1 -26 -5 -35 -28 -6 -16 -17 -30 -24 -30 -6 0 -14 -8 -17
-18 -3 -9 -16 -22 -28 -27 -13 -6 -24 -16 -24 -22 -1 -7 -2 -17 -3 -21 0 -4
-23 -21 -51 -37 -36 -22 -48 -35 -44 -47 3 -11 -6 -25 -26 -39 -16 -13 -30
-30 -30 -40 0 -10 -19 -27 -47 -42 -40 -21 -48 -30 -46 -51 1 -22 -2 -26 -27
-26 -15 0 -30 -7 -34 -15 -3 -8 -15 -15 -27 -15 -18 0 -15 7 25 51 25 28 46
55 46 59 0 15 89 112 119 131 17 10 31 25 31 32 0 20 232 257 251 257 18 0 37
19 54 54 6 11 23 27 38 34 15 7 27 20 27 28 0 7 4 14 8 14 4 0 32 23 62 50 30
28 55 50 57 50 1 0 21 18 45 40 24 22 53 43 66 46 12 3 22 12 22 20 0 8 5 14
10 14 15 0 100 81 100 95 0 7 26 32 58 56 31 24 63 49 70 56 18 17 32 16 54
-4z m3017 -64 c-1 -38 -6 -69 -11 -69 -4 0 -8 34 -6 75 1 40 5 72 10 69 5 -3
8 -37 7 -75z m83 38 c25 -20 26 -27 25 -92 -2 -64 -4 -70 -24 -73 -12 -2 -31
2 -43 8 -17 9 -20 20 -19 69 1 32 -2 64 -6 70 -8 13 12 41 29 41 6 -1 23 -11
38 -23z m-5193 -60 c17 -37 27 -67 23 -67 -4 0 -14 15 -21 33 -20 46 -41 101
-41 106 0 11 11 -10 39 -72z m5501 47 c0 -23 -3 -25 -37 -22 -62 5 -42 42 25
47 7 1 12 -10 12 -25z m122 8 c14 -14 -7 -30 -42 -33 -45 -4 -60 5 -53 32 5
19 11 20 47 15 23 -4 44 -10 48 -14z m388 8 c0 -5 -4 -10 -10 -10 -5 0 -10 5
-10 10 0 6 5 10 10 10 6 0 10 -4 10 -10z m396 -20 c-1 -17 -7 -30 -13 -30 -14
0 -17 19 -7 44 10 26 21 18 20 -14z m668 -4 c-3 -14 -10 -26 -15 -26 -11 0
-11 3 1 36 13 33 23 26 14 -10z m-9754 20 c0 -3 -4 -8 -10 -11 -5 -3 -10 -1
-10 4 0 6 5 11 10 11 6 0 10 -2 10 -4z m8424 -12 c34 -13 14 -25 -36 -22 -63
4 -80 28 -20 28 22 0 47 -3 56 -6z m1648 -9 c0 -5 -5 -11 -11 -13 -6 -2 -11 4
-11 13 0 9 5 15 11 13 6 -2 11 -8 11 -13z m-1582 -5 c0 -5 -2 -10 -4 -10 -3 0
-8 5 -11 10 -3 6 -1 10 4 10 6 0 11 -4 11 -10z m1395 -10 c3 -5 6 -59 7 -119
0 -87 -4 -118 -18 -150 -11 -22 -22 -41 -26 -41 -8 0 3 299 11 318 3 6 20 1
26 -8z m-6201 -109 c1 -50 -4 -102 -11 -118 -10 -24 -12 -9 -13 102 0 96 3
126 11 118 7 -7 12 -49 13 -102z m5871 -16 c-5 -49 -8 -128 -9 -174 -1 -58 -5
-86 -13 -88 -7 -3 -16 4 -19 14 -3 10 -10 26 -15 35 -15 29 -10 114 13 230 20
97 24 107 36 91 11 -14 12 -38 7 -108z m-5815 89 c0 -8 -4 -14 -10 -14 -5 0
-10 9 -10 21 0 11 5 17 10 14 6 -3 10 -13 10 -21z m311 -1 c6 -44 -2 -193 -10
-193 -4 0 -30 17 -58 38 -28 21 -68 47 -89 57 -22 11 -41 23 -42 28 -2 4 -20
14 -39 22 -23 10 -33 20 -31 31 2 13 18 17 83 20 98 4 155 10 162 18 13 12 21
5 24 -21z m339 21 c0 -12 -69 -74 -83 -74 -7 0 -18 -5 -24 -11 -12 -12 -48 54
-40 75 5 14 147 23 147 10z m5400 -17 c0 -20 -17 -40 -29 -33 -7 5 -7 14 1 31
11 24 28 25 28 2z m-5575 -43 c31 -64 30 -80 -7 -107 -45 -33 -58 -18 -58 66
0 67 10 97 31 97 4 0 19 -25 34 -56z m3764 11 c3 0 21 -7 39 -15 26 -12 32
-21 32 -46 0 -31 -1 -31 -42 -27 -24 2 -55 4 -70 4 -28 0 -37 12 -18 24 6 3
10 30 10 58 l1 52 20 -25 c12 -14 24 -25 28 -25z m1991 28 c-1 -10 -7 -29 -14
-42 -12 -22 -13 -21 -13 18 0 28 4 41 14 41 7 0 13 -8 13 -17z m-710 -70 c0
-72 -1 -76 -17 -61 -20 21 -22 100 -3 122 7 9 14 16 16 16 2 0 4 -35 4 -77z
m-4010 57 c0 -5 -4 -10 -9 -10 -6 0 -13 5 -16 10 -3 6 1 10 9 10 9 0 16 -4 16
-10z m54 -11 c-3 -5 -10 -7 -15 -3 -5 3 -7 10 -3 15 3 5 10 7 15 3 5 -3 7 -10
3 -15z m4766 8 c0 -7 -7 -22 -15 -33 -14 -18 -14 -17 -15 14 0 22 5 32 15 32
8 0 15 -6 15 -13z m-594 -19 c-4 -13 -11 -66 -16 -118 -14 -147 -21 -185 -32
-166 -5 9 -7 24 -4 34 3 9 8 64 12 122 3 57 10 115 15 127 11 30 34 31 25 1z
m954 12 c0 -5 -4 -10 -10 -10 -5 0 -10 5 -10 10 0 6 5 10 10 10 6 0 10 -4 10
-10z m-5033 -6 c-3 -3 -12 -4 -19 -1 -8 3 -5 6 6 6 11 1 17 -2 13 -5z m4719
-234 c-10 -73 -22 -60 -20 22 4 219 16 282 24 133 3 -49 1 -119 -4 -155z
m-7452 147 c19 -40 38 -85 41 -99 4 -14 17 -47 30 -73 l23 -49 -27 -20 c-14
-11 -41 -35 -59 -54 -18 -19 -34 -33 -36 -31 -5 5 -13 399 -9 399 2 0 19 -33
37 -73z m801 57 c28 -10 65 -23 83 -31 18 -8 43 -13 55 -11 20 3 22 -2 25 -43
3 -46 3 -47 -32 -53 -19 -4 -75 -4 -123 0 -48 3 -104 7 -123 8 -34 1 -35 3
-38 42 -3 36 1 43 25 59 15 10 34 25 41 32 17 17 27 16 87 -3z m4673 -32 c8
-24 11 -46 7 -50 -4 -4 -10 -1 -12 6 -3 6 -11 12 -19 12 -18 0 -39 44 -30 65
11 29 39 12 54 -33z m400 42 c34 -10 26 -21 -13 -19 -42 1 -74 25 -34 25 13 0
34 -3 47 -6z m155 -2 c10 -1 17 -10 17 -22 0 -16 -7 -19 -37 -18 -42 1 -92 26
-75 37 10 6 50 7 95 3z m189 -26 c4 -27 -18 -31 -25 -5 -7 26 1 45 13 32 5 -4
10 -17 12 -27z m1352 12 c-3 -13 -14 -36 -23 -53 l-16 -30 -3 29 c-6 46 6 76
29 76 16 0 19 -4 13 -22z m46 -106 c-12 -26 -25 -56 -30 -67 -5 -11 -17 -40
-29 -65 -11 -25 -23 -57 -27 -73 -3 -15 -10 -30 -16 -33 -16 -10 0 115 22 164
12 26 33 76 47 112 37 93 47 103 51 51 2 -28 -4 -58 -18 -89z m-7462 -15 c-3
-33 -5 -38 -12 -22 -4 11 -16 36 -26 55 -29 57 -35 84 -17 77 8 -3 23 0 34 8
17 13 18 10 21 -31 2 -25 2 -64 0 -87z m6003 116 c20 -20 -2 -41 -39 -39 -35
2 -48 15 -39 39 6 15 64 14 78 0z m1749 7 c0 -5 -7 -10 -15 -10 -8 0 -15 5
-15 10 0 6 7 10 15 10 8 0 15 -4 15 -10z m-5786 -9 c4 -5 28 -7 55 -4 27 2 52
0 55 -5 3 -6 24 -8 46 -5 22 3 40 2 40 -3 0 -5 39 -9 88 -9 77 0 190 -8 262
-20 14 -3 45 -7 70 -10 133 -15 238 -27 260 -29 14 -2 27 -4 30 -5 3 -1 32 -4
65 -6 233 -13 280 -17 289 -23 6 -4 20 -7 31 -8 53 -2 174 -17 205 -24 36 -9
151 -21 231 -25 25 -1 52 -6 60 -10 8 -5 48 -10 90 -11 42 -1 81 -4 86 -7 4
-3 65 -8 133 -12 69 -4 130 -11 136 -16 6 -5 55 -12 110 -15 54 -3 104 -10
109 -14 6 -5 36 -11 66 -14 30 -2 88 -7 129 -11 41 -3 100 -8 130 -10 30 -2
84 -10 119 -18 35 -9 70 -13 77 -10 6 2 15 0 19 -6 11 -19 -46 -33 -95 -24
-26 5 -59 6 -75 1 -27 -8 -60 -14 -92 -17 -7 0 -10 -8 -7 -16 4 -9 16 -14 28
-13 11 1 51 -1 88 -5 57 -7 73 -5 113 13 25 11 48 27 51 35 8 20 37 27 67 16
15 -6 66 -13 114 -16 49 -3 102 -10 118 -15 17 -5 64 -12 105 -16 116 -10 333
-85 346 -119 3 -7 33 -27 67 -44 86 -41 362 -309 352 -341 -9 -28 12 -55 32
-39 11 9 22 3 55 -32 22 -24 52 -60 67 -79 14 -19 50 -61 80 -93 63 -67 101
-120 101 -140 0 -8 6 -17 14 -20 8 -3 21 -19 29 -36 14 -28 14 -30 -6 -28 -11
1 -22 10 -25 19 -2 10 -16 21 -30 25 -14 3 -185 3 -380 -1 -276 -6 -363 -10
-390 -22 -19 -8 -43 -12 -52 -9 -19 6 -71 -18 -90 -40 -7 -8 -20 -15 -30 -15
-10 0 -20 -7 -24 -15 -3 -8 -12 -12 -19 -9 -8 3 -35 -9 -61 -26 -25 -17 -56
-32 -68 -33 -13 -1 -31 -9 -41 -18 -10 -9 -37 -22 -60 -29 -23 -8 -47 -17 -53
-21 -5 -5 -20 -6 -32 -2 -16 4 -22 1 -22 -11 0 -12 -6 -15 -25 -10 -18 4 -27
1 -31 -10 -3 -9 -13 -16 -21 -16 -7 0 -32 -9 -54 -19 -22 -11 -66 -25 -97 -31
-51 -10 -151 -44 -177 -60 -5 -4 -37 -8 -70 -9 -33 -1 -75 -4 -92 -5 l-33 -3
0 58 c0 32 5 61 10 64 6 3 10 -3 10 -13 0 -22 26 -37 35 -22 4 6 3 30 -1 55
-5 35 -10 45 -25 45 -14 0 -19 7 -19 26 0 21 -4 25 -22 22 -19 -2 -23 -9 -21
-34 2 -19 -4 -37 -12 -44 -17 -14 -20 -46 -5 -55 6 -3 10 -28 10 -55 0 -38 -4
-50 -17 -54 -22 -6 -133 -18 -193 -20 l-45 -1 -3 58 c-2 36 2 64 9 73 9 11 9
18 1 26 -16 16 -15 61 0 76 9 9 9 15 0 24 -7 7 -12 16 -12 20 0 5 14 -7 31
-27 34 -38 86 -58 139 -53 24 2 36 9 38 21 3 14 -4 17 -41 17 -24 0 -57 7 -73
15 -28 13 -74 58 -74 70 0 3 -8 15 -19 26 -10 11 -21 33 -25 49 -7 36 -41 57
-62 39 -18 -15 -18 -35 1 -43 12 -4 13 -11 4 -33 -6 -15 -15 -109 -19 -207 -7
-127 -13 -182 -22 -188 -12 -7 -28 -9 -98 -13 -14 -1 -34 -6 -45 -11 -32 -14
-249 -11 -268 4 -9 8 -25 10 -40 7 -14 -4 -35 -2 -46 5 -14 7 -21 7 -21 0 0
-15 -21 -12 -41 6 -11 9 -23 13 -31 8 -7 -4 -40 -9 -73 -10 -33 -1 -60 -3 -60
-4 0 -1 -27 -3 -60 -4 -33 -1 -65 -5 -71 -9 -7 -4 -15 0 -18 9 -3 8 -10 13
-16 9 -10 -6 -126 -33 -174 -41 -48 -7 -175 -40 -211 -54 -18 -8 -50 -15 -100
-24 -11 -1 -36 -7 -55 -11 -19 -5 -42 -9 -50 -10 -8 -1 -26 -7 -40 -12 -14 -5
-52 -11 -84 -12 -33 -1 -67 -6 -77 -12 -10 -5 -33 -9 -53 -9 -19 0 -38 -5 -41
-10 -4 -6 -15 -8 -26 -5 -10 4 -19 2 -19 -3 0 -5 -27 -9 -60 -7 -33 1 -62 0
-65 -4 -2 -4 -59 -6 -127 -6 -68 1 -127 -1 -133 -5 -5 -4 -17 -8 -25 -8 -8 -1
-35 -6 -60 -12 -43 -11 -112 -14 -230 -11 -30 1 -71 0 -90 -3 -63 -9 -126 -10
-139 -2 -6 4 -18 3 -26 -4 -10 -8 -15 -8 -20 0 -4 6 -14 8 -24 4 -19 -8 -113
-29 -226 -50 -65 -13 -85 -21 -105 -44 -16 -18 -42 -33 -70 -39 -47 -10 -60
-4 -60 32 0 20 -20 57 -38 72 -12 10 -38 93 -47 152 -2 13 -6 42 -10 64 -5 26
-3 44 3 48 18 11 -11 56 -38 59 -13 2 -35 13 -49 23 -13 10 -38 19 -56 19 -18
0 -37 6 -43 13 -16 19 -80 9 -93 -15 -6 -12 -8 -56 -5 -116 14 -232 14 -238
-18 -271 -19 -20 -40 -31 -58 -31 -17 0 -31 -7 -38 -20 -6 -11 -17 -20 -26
-20 -25 0 -37 -49 -24 -100 6 -24 16 -50 22 -57 6 -7 7 -20 4 -29 -4 -11 -2
-15 7 -11 7 3 20 -8 29 -24 16 -27 16 -29 -3 -39 -29 -16 -52 -56 -44 -80 3
-11 17 -26 31 -33 21 -11 14 -12 -61 -11 -56 0 -90 6 -101 15 -16 12 -17 12
-11 -3 3 -10 3 -19 -1 -19 -45 -8 -60 -10 -77 -10 -30 -1 -132 7 -213 16 -66
7 -73 10 -78 32 -4 16 -2 28 7 34 22 13 26 11 39 -21 12 -30 35 -40 42 -18 2
6 -2 48 -9 92 -7 45 -10 96 -7 114 6 33 -3 41 -25 20 -10 -11 -10 -8 -2 14 5
14 7 52 4 84 -4 38 -3 55 4 51 6 -4 18 2 28 13 10 11 15 20 11 20 -4 0 -2 9 4
20 6 11 17 20 25 20 8 0 15 6 15 13 1 6 14 28 30 47 17 19 30 40 30 48 0 8 20
38 45 66 25 29 45 60 45 68 0 8 12 25 26 39 15 13 42 56 60 96 36 76 80 130
211 259 45 45 85 93 88 107 4 15 13 31 21 38 8 6 14 17 14 25 0 7 22 40 49 72
28 33 47 63 44 66 -8 7 53 66 68 66 5 0 9 5 9 12 0 6 11 26 25 44 14 18 25 37
25 43 0 6 7 11 16 11 9 0 18 9 21 19 3 11 11 22 19 25 17 6 20 -49 4 -59 -7
-5 -8 -11 -1 -18 6 -9 -6 -29 -40 -66 -27 -29 -49 -58 -49 -64 0 -5 -26 -37
-57 -71 -32 -34 -74 -83 -93 -109 -19 -27 -52 -69 -72 -95 -21 -26 -38 -51
-38 -56 0 -5 -22 -35 -48 -65 -27 -31 -66 -81 -88 -111 -21 -30 -54 -75 -74
-100 -19 -25 -40 -52 -45 -61 -6 -9 -23 -36 -39 -60 -67 -100 -76 -116 -76
-125 0 -6 -13 -28 -30 -50 -16 -21 -30 -44 -30 -50 0 -6 -11 -21 -25 -34 -26
-25 -55 -74 -55 -95 0 -7 -9 -22 -20 -35 -11 -13 -20 -29 -20 -37 0 -21 26
-15 38 10 25 48 52 90 70 111 22 25 100 144 131 201 55 100 242 364 290 409
17 17 31 36 31 43 0 7 5 13 11 13 5 0 16 15 24 33 7 18 23 41 35 52 11 10 27
33 35 49 8 17 31 49 50 70 19 22 35 42 35 45 0 3 22 31 49 61 28 30 56 66 63
80 7 13 30 41 51 61 20 20 37 40 37 44 0 3 46 53 101 110 56 57 113 119 128
136 14 18 51 59 81 92 30 32 57 63 58 68 2 5 10 9 17 9 8 0 16 8 19 18 3 9 16
22 28 27 13 6 28 21 35 35 7 14 13 21 13 15 0 -5 18 9 40 30 22 21 40 45 40
52 0 7 6 13 13 13 7 0 57 45 112 99 54 55 110 105 124 112 14 8 41 28 59 46
18 18 36 33 40 33 4 0 27 20 52 45 25 24 50 44 56 45 6 0 17 7 24 15 14 16 85
21 94 6z m5596 -109 c0 -180 -14 -209 -20 -42 -6 150 -5 164 11 155 5 -4 9
-54 9 -113z m-1994 87 c37 -10 45 -15 42 -33 -2 -17 -11 -22 -44 -24 -46 -3
-66 12 -57 46 6 26 2 25 59 11z m-5179 -25 c-9 -9 -28 6 -21 18 4 6 10 6 17
-1 6 -6 8 -13 4 -17z m537 -15 c16 -41 16 -42 -5 -65 -12 -13 -26 -21 -30 -18
-16 10 -6 124 11 124 4 0 15 -19 24 -41z m4564 13 c4 -25 -13 -30 -22 -6 -9
25 -7 36 7 32 6 -3 13 -14 15 -26z m251 2 c27 -9 -9 -32 -48 -30 -45 1 -56 9
-48 31 5 11 16 14 44 10 21 -4 44 -8 52 -11z m1516 -151 c-7 -158 -12 -182
-37 -183 -11 0 2 311 13 333 6 9 15 17 21 17 7 0 8 -49 3 -167z m-6282 130 c8
-16 28 -53 46 -83 33 -60 36 -70 20 -70 -5 0 -19 21 -31 48 -11 26 -26 54 -32
62 -19 24 -36 70 -27 70 5 0 16 -12 24 -27z m6161 -118 c-9 -19 -19 -35 -23
-35 -12 0 5 134 20 160 13 24 14 23 17 -32 2 -39 -3 -70 -14 -93z m-616 59
c-14 -14 -15 -11 -16 33 l0 48 16 -33 c14 -29 14 -34 0 -48z m-643 56 c4 -6
-13 -10 -44 -10 -28 0 -51 5 -51 10 0 6 20 10 44 10 25 0 48 -4 51 -10z m1965
-25 c0 -8 -4 -15 -10 -15 -5 0 -10 7 -10 15 0 8 5 15 10 15 6 0 10 -7 10 -15z
m-7890 -51 c13 -25 29 -48 36 -51 9 -3 14 -21 14 -50 0 -51 -13 -50 -36 5 -17
39 -44 122 -44 135 0 17 9 4 30 -39z m6959 -56 c1 -41 5 -59 17 -66 23 -13 10
-72 -16 -72 -10 0 -22 5 -26 12 -10 15 -8 155 2 199 7 33 8 33 15 9 4 -14 7
-51 8 -82z m-6539 61 c0 -5 -9 -9 -20 -9 -22 0 -27 16 -7 23 15 5 27 -1 27
-14z m5363 14 c-7 -2 -21 -2 -30 0 -10 3 -4 5 12 5 17 0 24 -2 18 -5z m62 -13
c3 -5 2 -10 -4 -10 -5 0 -13 5 -16 10 -3 6 -2 10 4 10 5 0 13 -4 16 -10z m65
0 c0 -5 -4 -10 -10 -10 -5 0 -10 5 -10 10 0 6 5 10 10 10 6 0 10 -4 10 -10z
m138 -7 c2 -9 -7 -13 -27 -13 -21 0 -31 5 -31 16 0 19 51 16 58 -3z m249 -3
c8 0 13 -6 10 -12 -2 -7 -12 -12 -21 -12 -9 1 -16 -2 -16 -7 0 -5 -4 -9 -10
-9 -15 0 -12 48 3 53 6 2 14 0 15 -4 2 -5 10 -9 19 -9z m-192 0 c-3 -5 -10
-10 -16 -10 -5 0 -9 5 -9 10 0 6 7 10 16 10 8 0 12 -4 9 -10z m105 -15 c0 -10
-10 -15 -32 -15 -31 1 -32 1 -14 15 25 19 46 19 46 0z m375 5 c3 -5 1 -10 -4
-10 -6 0 -11 5 -11 10 0 6 2 10 4 10 3 0 8 -4 11 -10z m297 -72 c-2 -40 -5
-74 -7 -76 -1 -1 -10 0 -19 4 -9 3 -16 17 -16 32 0 27 31 112 40 112 3 0 4
-33 2 -72z m647 -25 c-1 -54 -4 -111 -8 -128 -6 -28 -9 -30 -56 -30 -48 0 -50
1 -47 26 1 14 16 54 32 88 17 34 30 63 30 65 0 15 32 76 40 76 6 0 10 -39 9
-97z m-7026 57 c3 -11 1 -18 -4 -14 -5 3 -9 12 -9 20 0 20 7 17 13 -6z m7297
-2 c0 -33 -92 -248 -106 -248 -6 0 -18 -8 -25 -17 -10 -11 -10 -14 -1 -9 8 5
12 0 12 -16 0 -17 -6 -23 -25 -24 -30 -2 -30 -1 -2 53 58 111 127 258 127 272
0 6 5 11 10 11 6 0 10 -10 10 -22z m-6893 -24 c-7 -51 -17 -54 -17 -6 0 24 5
42 11 42 6 0 9 -14 6 -36z m5425 14 c-9 -9 -15 -9 -24 0 -9 9 -7 12 12 12 19
0 21 -3 12 -12z m-5342 -9 c0 -5 -4 -7 -10 -4 -5 3 -10 1 -10 -4 0 -6 -9 -11
-20 -11 -20 0 -26 11 -13 23 10 11 53 8 53 -4z m-300 -11 c8 0 48 3 88 7 51 4
72 3 67 -4 -3 -6 -19 -11 -35 -11 -16 0 -31 -4 -34 -9 -3 -5 -35 -14 -71 -21
-36 -7 -65 -16 -65 -21 0 -14 -40 -10 -56 5 -8 8 -18 26 -24 41 l-10 26 63 -6
c34 -4 69 -7 77 -7z m-246 -52 c-2 -27 -5 -51 -7 -52 -2 -2 -25 16 -52 41 -47
43 -48 45 -26 53 12 4 37 8 55 8 l33 0 -3 -50z m6749 2 c-8 -129 -42 -134 -43
-6 0 45 2 49 41 57 3 0 4 -23 2 -51z m503 15 c-11 -11 -19 6 -11 24 8 17 8 17
12 0 3 -10 2 -21 -1 -24z m-6426 22 c0 -6 -73 -74 -81 -75 -12 0 -31 49 -26
64 5 12 20 16 57 16 27 0 50 -2 50 -5z m-767 -238 c3 -125 1 -230 -4 -233 -5
-3 -9 5 -10 18 0 13 -1 117 -3 231 -2 185 0 224 10 214 2 -1 5 -105 7 -230z
m6586 127 c-6 -7 -15 -12 -19 -9 -7 4 -6 18 4 80 1 6 6 17 11 25 7 11 11 2 13
-33 2 -27 -2 -55 -9 -63z m-6857 80 c7 -9 30 -35 51 -57 20 -21 37 -43 37 -47
0 -10 -54 -35 -103 -48 -44 -12 -43 -15 -51 80 -4 57 -2 69 12 77 25 15 39 13
54 -5z m928 -83 c0 -12 -5 -10 -20 9 -11 14 -20 40 -20 60 l0 35 20 -44 c11
-24 20 -51 20 -60z m-1020 15 c0 -29 -5 -57 -10 -62 -8 -8 -7 -19 1 -37 12
-27 7 -57 -11 -57 -6 0 -10 43 -10 116 0 102 2 115 15 104 10 -8 15 -30 15
-64z m430 -13 c0 -13 -3 -13 -15 -3 -8 7 -15 27 -15 44 l0 31 15 -29 c8 -15
15 -35 15 -43z m530 11 c25 -44 21 -60 -23 -79 -18 -8 -57 -35 -86 -61 -32
-29 -55 -43 -59 -37 -12 19 -2 175 11 170 7 -2 26 3 42 11 17 8 44 19 60 23
17 4 31 7 32 8 0 1 11 -15 23 -35z m6740 26 c0 -5 -2 -10 -4 -10 -3 0 -8 5
-11 10 -3 6 -1 10 4 10 6 0 11 -4 11 -10z m-6930 -104 c0 -65 -10 -146 -19
-146 -5 0 -7 178 -3 203 1 5 7 5 12 2 6 -3 10 -30 10 -59z m6686 -22 c-8 -21
-23 -17 -29 8 -4 12 1 34 11 51 l17 29 3 -37 c2 -21 1 -43 -2 -51z m54 77 c0
-6 -4 -13 -10 -16 -5 -3 -10 1 -10 9 0 9 5 16 10 16 6 0 10 -4 10 -9z m-7592
-53 c-2 -29 -7 -53 -13 -53 -5 0 -14 -3 -20 -7 -5 -3 -35 -9 -65 -13 l-55 -7
30 30 c17 17 44 46 60 65 17 20 38 36 48 36 16 1 18 -6 15 -51z m7296 31 c-3
-5 -10 -7 -15 -3 -5 3 -7 10 -3 15 3 5 10 7 15 3 5 -3 7 -10 3 -15z m-6504
-73 l0 -85 -27 0 c-54 -1 -73 -6 -94 -25 -18 -15 -23 -15 -30 -5 -5 8 -9 19
-9 25 0 5 -11 33 -25 62 -13 28 -22 58 -19 66 3 8 28 19 57 25 29 5 61 12 72
14 11 3 32 5 48 6 l27 1 0 -84z m-212 -28 c18 -39 35 -89 38 -112 5 -39 4 -38
-30 30 -35 70 -76 162 -76 170 0 2 8 -1 18 -7 9 -6 32 -42 50 -81z m-78 41 c0
-5 -4 -9 -10 -9 -5 0 -10 7 -10 16 0 8 5 12 10 9 6 -3 10 -10 10 -16z m6341
-16 c12 -12 4 -33 -11 -33 -11 0 -40 29 -40 41 0 12 37 6 51 -8z m899 -33 c0
-26 -3 -30 -29 -30 -43 0 -48 27 -8 44 18 8 33 15 35 15 1 1 2 -12 2 -29z
m-7362 -58 c3 -64 1 -72 -19 -83 -12 -6 -41 -9 -65 -6 -30 3 -47 0 -55 -10
-16 -19 -25 -8 -47 57 l-19 55 91 31 c50 17 96 31 101 29 6 -1 11 -34 13 -73z
m6387 68 c3 -5 2 -10 -4 -10 -5 0 -13 5 -16 10 -3 6 -2 10 4 10 5 0 13 -4 16
-10z m-448 -29 c29 -6 59 -8 67 -5 8 3 31 1 52 -4 22 -6 60 -13 87 -17 26 -3
47 -9 47 -13 0 -4 -15 -17 -34 -30 -27 -18 -42 -22 -70 -16 -20 3 -39 10 -41
15 -3 4 -27 11 -53 15 -26 3 -60 12 -77 19 -56 23 -145 46 -155 40 -6 -3 -10
0 -10 7 0 15 78 10 187 -11z m-6177 -38 c32 -54 137 -313 146 -357 7 -42 46
-117 69 -136 18 -15 21 -84 3 -78 -14 5 -42 49 -59 91 -6 16 -22 50 -35 75
-13 26 -24 54 -24 62 0 9 -4 20 -9 25 -5 6 -18 36 -30 69 -20 53 -37 94 -76
181 -19 43 -28 82 -20 94 9 16 11 15 35 -26z m-72 -3 c9 -14 11 -40 6 -83 -6
-58 -10 -130 -13 -219 0 -21 -6 -38 -11 -38 -7 0 -10 61 -8 180 2 99 5 180 8
180 3 0 11 -9 18 -20z m438 5 c4 -8 15 -15 26 -15 12 0 24 -12 34 -35 18 -44
18 -45 -9 -45 -13 0 -28 -5 -35 -12 -18 -18 -51 17 -47 50 1 15 3 37 4 50 1
25 19 30 27 7z m6599 -14 c4 -11 -3 -12 -32 -7 -21 3 -44 6 -50 6 -7 0 -13 4
-13 10 0 15 89 7 95 -9z m105 -21 c0 -5 -4 -10 -10 -10 -5 0 -10 5 -10 10 0 6
5 10 10 10 6 0 10 -4 10 -10z m-1094 -20 c10 0 154 -156 151 -164 -11 -32 -43
-13 -120 69 -103 110 -107 116 -65 104 18 -5 33 -9 34 -9z m619 -55 c19 -25
23 -35 14 -41 -7 -4 -15 -2 -17 4 -2 7 -9 12 -15 12 -27 0 -87 22 -87 31 0 6
14 25 31 42 l32 31 8 -22 c5 -13 20 -38 34 -57z m206 38 c-9 -16 -10 -14 -11
12 0 21 3 26 11 18 8 -8 8 -16 0 -30z m-6951 2 c0 -22 -4 -24 -32 -22 -18 2
-37 0 -43 -4 -5 -4 -23 -5 -39 -2 -27 6 -26 7 25 29 71 31 89 31 89 -1z m794
17 c9 -14 -27 -37 -62 -40 -27 -2 -33 1 -30 15 2 12 16 20 38 24 19 4 38 7 42
8 4 0 9 -3 12 -7z m6493 2 c-3 -3 -12 -4 -19 -1 -8 3 -5 6 6 6 11 1 17 -2 13
-5z m-179 -16 c8 -8 6 -17 -8 -36 -25 -31 -25 -56 0 -107 10 -22 17 -43 14
-46 -2 -4 3 -12 11 -19 16 -13 20 -42 8 -53 -7 -8 -53 32 -53 46 0 5 -18 31
-40 57 -39 46 -49 70 -32 70 5 0 17 -9 27 -20 26 -29 38 -10 20 33 -8 20 -15
48 -15 62 0 21 5 25 28 25 15 0 33 -5 40 -12z m-213 -8 c3 -5 1 -10 -4 -10 -6
0 -11 5 -11 10 0 6 2 10 4 10 3 0 8 -4 11 -10z m-595 -34 c42 -14 66 -28 68
-39 2 -10 -3 -17 -13 -17 -8 0 -18 -7 -21 -15 -10 -24 -26 -18 -76 32 -72 70
-65 76 42 39z m925 -104 c-8 -124 -28 -227 -40 -200 -4 10 -5 23 -2 30 2 7 1
20 -3 28 -18 34 22 250 46 250 3 0 3 -49 -1 -108z m-815 24 c0 -3 -4 -8 -10
-11 -5 -3 -10 -1 -10 4 0 6 5 11 10 11 6 0 10 -2 10 -4z m2138 -10 c8 -5 68
-14 132 -21 71 -7 196 -27 235 -38 70 -19 75 -28 69 -126 -9 -169 -11 -207
-12 -251 -1 -25 -6 -40 -10 -35 -4 6 -16 10 -27 10 -11 -1 -36 2 -55 6 -19 4
-59 10 -89 13 -31 4 -59 13 -65 22 -8 11 -23 14 -51 10 -22 -2 -40 -5 -40 -7
0 -1 -11 -3 -25 -4 -55 -6 -107 -13 -142 -20 -34 -6 -36 -5 -42 22 -3 15 -5
77 -5 138 0 60 -3 151 -6 203 l-7 93 65 -5 c37 -2 70 -7 75 -10z m-8369 -41
c14 -36 14 -39 -8 -56 -13 -11 -34 -19 -47 -19 -22 0 -24 4 -24 50 0 43 3 52
23 60 32 13 40 8 56 -35z m326 35 c8 -12 -5 -60 -16 -60 -5 0 -9 16 -9 35 0
33 12 46 25 25z m6108 -26 c42 -16 77 -32 77 -36 0 -8 -34 -11 -161 -13 -36
-1 -71 -5 -77 -9 -7 -4 -12 -2 -12 5 0 18 72 90 85 86 5 -2 45 -17 88 -33z
m-6615 -71 l3 -91 -44 5 c-31 4 -56 -1 -88 -15 -32 -15 -46 -17 -51 -9 -8 12
-11 190 -4 198 2 2 44 3 93 3 l88 -1 3 -90z m385 85 c2 -7 -14 -24 -36 -37
-36 -21 -40 -22 -55 -7 -20 19 -10 31 38 44 47 14 48 14 53 0z m7017 -231
c-65 -140 -90 -179 -90 -139 0 12 5 22 11 22 8 0 9 15 4 46 -6 41 -4 46 14 51
12 3 21 13 21 22 0 9 7 30 16 46 9 17 17 38 19 48 2 10 17 44 32 75 l28 57 3
-48 c3 -41 -6 -67 -58 -180z m-6842 146 c28 10 53 17 56 17 15 0 3 -24 -24
-47 -16 -13 -30 -30 -30 -37 0 -13 -57 -72 -64 -65 -2 2 -7 38 -10 79 -7 66
-6 73 7 56 14 -18 16 -19 65 -3z m-170 -97 c3 -39 -11 -47 -28 -16 -8 14 -7
25 2 39 16 26 23 20 26 -23z m6450 30 c7 -4 2 -20 -18 -50 -45 -66 -56 -73
-90 -53 -15 9 -38 17 -49 17 -12 0 -21 4 -21 9 0 5 -23 14 -50 21 -28 7 -53
16 -56 21 -3 5 -14 9 -25 9 -10 0 -19 5 -19 10 0 10 11 11 158 15 45 1 84 4
87 6 6 7 70 3 83 -5z m-6007 -29 c-8 -8 -11 -7 -11 4 0 20 13 34 18 19 3 -7
-1 -17 -7 -23z m-758 -44 c3 -27 4 -73 2 -103 -2 -30 -4 -76 -4 -102 -1 -27
-5 -48 -11 -48 -6 0 -10 57 -10 150 0 146 12 198 23 103z m7196 -34 l-11 -22
-14 24 c-18 32 -17 40 4 37 11 -2 18 5 22 22 4 23 5 22 8 -7 2 -18 -2 -42 -9
-54z m-7004 19 c10 -24 33 -76 52 -117 19 -40 32 -79 29 -86 -5 -14 -60 -27
-64 -15 -2 4 -17 4 -35 0 -61 -15 -147 -19 -148 -7 0 7 0 53 1 102 1 103 6
112 85 144 28 11 53 20 56 20 3 1 14 -18 24 -41z m6760 -59 c42 -63 56 -96 38
-87 -28 13 -66 29 -115 49 -32 13 -58 25 -58 29 0 3 14 28 30 54 36 57 39 56
105 -45z m432 19 c-4 -40 -9 -117 -13 -170 -4 -54 -10 -98 -14 -98 -4 0 -19
23 -34 50 -26 48 -27 53 -16 108 7 31 16 65 21 74 5 10 9 25 9 34 0 20 31 74
44 74 5 0 6 -31 3 -72z m-1093 -4 c3 -8 2 -12 -4 -9 -6 3 -10 10 -10 16 0 14
7 11 14 -7z m162 -21 c15 -21 33 -45 41 -53 50 -57 64 -82 58 -98 -6 -14 -11
-12 -33 17 -15 18 -48 60 -74 92 -27 32 -48 63 -48 69 0 22 29 8 56 -27z
m-6538 -165 c-7 -4 -41 -8 -75 -8 -55 0 -64 3 -79 25 -9 13 -18 42 -21 65 -5
34 -3 40 13 40 11 0 28 7 38 15 11 8 29 15 41 15 11 0 36 8 55 19 l35 18 3
-90 c2 -65 -1 -93 -10 -99z m6665 131 c42 -15 44 -20 21 -54 l-16 -25 -34 43
c-35 44 -43 62 -21 54 6 -2 29 -10 50 -18z m855 -121 c5 -110 -3 -198 -17
-198 -14 0 -29 82 -26 145 2 33 7 91 11 129 10 98 27 60 32 -76z m-652 44 c5
-5 36 -17 69 -28 99 -32 165 -67 155 -84 -6 -10 -12 -11 -22 -2 -10 7 -18 8
-24 2 -10 -10 -262 -16 -272 -6 -7 8 13 51 44 92 28 36 34 39 50 26z m-6988
-180 c23 -49 42 -97 41 -108 0 -17 -98 169 -99 189 -1 26 21 -5 58 -81z m261
14 c10 -12 8 -17 -8 -25 -11 -6 -22 -11 -25 -11 -5 0 -3 28 3 48 2 7 20 0 30
-12z m-67 -48 c-9 -9 -12 -4 -11 23 0 32 1 33 11 11 8 -17 8 -26 0 -34z m-71
0 c2 -62 -1 -121 -6 -126 -4 -5 -75 136 -75 149 0 7 20 12 68 18 8 0 12 -14
13 -41z m7209 -9 c0 -11 -87 -146 -99 -153 -4 -3 -27 3 -49 14 -23 11 -46 20
-52 20 -5 0 -10 4 -10 9 0 5 -15 12 -32 15 -48 9 -123 49 -123 66 0 15 2 15
183 21 51 1 95 6 97 9 6 10 85 9 85 -1z m-7345 -58 c5 -16 3 -26 -6 -32 -25
-16 -29 -10 -29 43 0 47 1 51 14 33 7 -11 17 -31 21 -44z m215 -48 c0 -32 -4
-64 -9 -72 -11 -18 -16 -4 -15 44 2 71 4 85 14 85 6 0 10 -26 10 -57z m70 28
c0 -5 -9 -19 -20 -32 l-19 -24 -1 27 c0 23 10 35 33 37 4 1 7 -3 7 -8z m7137
-98 c-2 -61 -12 -72 -42 -49 -20 15 -20 15 4 60 13 25 27 46 31 46 5 0 7 -26
7 -57z m73 -2 c8 -16 28 -53 43 -81 16 -29 25 -50 20 -48 -4 3 -27 13 -50 22
-46 20 -51 32 -45 94 5 49 12 52 32 13z m-456 -19 c3 -9 24 -41 46 -71 50 -68
53 -102 5 -46 -19 22 -35 44 -35 49 0 5 -11 24 -25 42 -14 18 -25 37 -25 43 0
16 27 2 34 -17z m-6960 -28 c14 -26 26 -55 26 -65 0 -10 -22 -43 -49 -73 -27
-30 -52 -65 -56 -77 l-8 -24 -8 22 c-8 22 -15 232 -8 236 12 8 56 26 66 26 6
1 23 -20 37 -45z m6828 1 c6 -14 15 -25 19 -25 5 0 21 -21 36 -47 15 -27 31
-52 35 -58 32 -39 68 -103 68 -120 0 -16 -5 -13 -23 14 -12 19 -30 46 -39 60
-10 14 -24 41 -32 58 -8 18 -25 44 -38 57 -29 30 -60 86 -47 86 5 0 15 -11 21
-25z m236 -4 c34 -14 42 -40 18 -60 -11 -9 -18 -6 -33 16 -22 32 -37 67 -26
61 5 -3 23 -10 41 -17z m205 -107 c54 -27 67 -44 67 -86 0 -38 0 -38 -42 -40
-24 -1 -60 -2 -80 -4 -29 -1 -40 3 -52 21 -14 21 -13 26 9 59 50 73 51 74 98
50z m157 -89 c39 -20 38 -32 -2 -31 -26 1 -34 6 -36 24 -4 26 0 27 38 7z m-93
-148 c13 -13 13 -47 0 -47 -19 1 -59 38 -52 50 6 10 40 9 52 -3z m297 -7 c14
-13 11 -23 -19 -86 -48 -99 -54 -103 -110 -65 -25 17 -48 31 -51 31 -3 0 -19
9 -35 21 -24 17 -29 27 -29 63 0 23 2 45 5 47 2 3 54 5 114 5 84 -1 114 -5
125 -16z m-574 -5 c0 -8 -4 -15 -10 -15 -5 0 -10 7 -10 15 0 8 5 15 10 15 6 0
10 -7 10 -15z m692 -120 c9 -26 17 -51 16 -54 -2 -12 16 -47 39 -75 24 -28 63
-99 63 -112 0 -4 -8 -1 -17 8 -10 8 -29 19 -43 26 -14 7 -34 17 -45 24 -97 61
-125 80 -125 87 0 14 42 104 59 128 22 31 33 24 53 -32z m143 -64 c-3 -2 -5 1
-5 7 0 6 -7 18 -16 27 -9 9 -13 22 -9 33 5 13 10 8 20 -23 8 -21 12 -41 10
-44z m-596 13 c6 -14 11 -27 11 -30 0 -12 -21 10 -35 36 -12 24 -13 28 -1 24
7 -3 18 -16 25 -30z m-139 5 c0 -6 -4 -7 -10 -4 -5 3 -10 11 -10 16 0 6 5 7
10 4 6 -3 10 -11 10 -16z m27 -51 c-3 -8 -6 -5 -6 6 -1 11 2 17 5 13 3 -3 4
-12 1 -19z m256 -22 c20 -9 37 -21 37 -26 0 -14 -34 -70 -43 -70 -14 0 -47 65
-47 93 0 16 3 26 8 24 4 -2 24 -11 45 -21z m-242 -69 c-13 -13 -26 -3 -16 12
3 6 11 8 17 5 6 -4 6 -10 -1 -17z m56 -34 c11 -22 10 -28 -5 -39 -20 -15 -68
-18 -76 -5 -7 11 44 71 59 71 5 0 16 -12 22 -27z m385 -31 c31 -18 62 -40 68
-47 7 -8 20 -15 30 -15 9 0 25 -9 35 -20 10 -11 42 -33 71 -49 29 -17 55 -35
59 -41 4 -7 -55 -10 -183 -10 l-188 0 -17 35 c-23 49 -21 66 11 111 16 21 31
47 35 57 8 21 4 22 79 -21z m-350 -61 c16 -19 38 -82 38 -108 0 -23 -57 -15
-74 9 -21 30 -20 38 4 38 26 0 25 3 -5 36 -19 21 -22 29 -13 36 20 12 32 10
50 -11z m793 -38 c23 4 29 0 41 -29 8 -18 14 -36 14 -39 0 -3 -22 -5 -49 -5
-46 0 -50 2 -62 33 -6 17 -12 34 -13 37 -1 3 -4 10 -7 15 -24 40 -17 47 15 16
27 -26 41 -32 61 -28z m-595 -73 c0 -5 -7 -10 -16 -10 -8 0 -12 5 -9 10 3 6
10 10 16 10 5 0 9 -4 9 -10z m280 -725 c0 -8 -4 -15 -10 -15 -5 0 -10 7 -10
15 0 8 5 15 10 15 6 0 10 -7 10 -15z"/>
<path d="M7629 5111 c-12 -42 -5 -67 12 -41 16 26 22 61 11 72 -7 7 -14 -2
-23 -31z"/>
<path d="M6689 4078 c0 -2 -3 -27 -6 -55 -3 -34 -1 -53 6 -53 7 0 11 22 11 55
0 30 -2 55 -5 55 -3 0 -5 -1 -6 -2z"/>
<path d="M6680 3950 c0 -5 5 -10 11 -10 5 0 7 5 4 10 -3 6 -8 10 -11 10 -2 0
-4 -4 -4 -10z"/>
<path d="M6746 3878 c-3 -13 -7 -67 -8 -121 -2 -72 0 -97 10 -97 7 0 12 13 12
33 0 17 3 69 6 113 4 54 3 84 -5 88 -6 4 -13 -3 -15 -16z"/>
<path d="M6683 3825 c0 -22 2 -30 4 -17 2 12 2 30 0 40 -3 9 -5 -1 -4 -23z"/>
<path d="M694 4154 c-17 -14 -17 -15 -1 -10 10 3 23 6 28 6 5 0 9 5 9 10 0 14
-13 12 -36 -6z"/>
<path d="M7651 3724 c0 -11 3 -14 6 -6 3 7 2 16 -1 19 -3 4 -6 -2 -5 -13z"/>
<path d="M3097 3563 c-9 -15 -11 -98 -3 -111 4 -7 14 -12 23 -12 13 0 15 10
11 55 -5 54 -20 87 -31 68z"/>
<path d="M7431 3029 c-35 -27 -73 -50 -85 -51 -39 -3 -51 -5 -69 -13 -10 -4
-23 -2 -31 4 -11 9 -15 9 -18 -1 -4 -11 -8 -11 -20 0 -13 10 -17 10 -20 1 -3
-8 -9 -9 -19 -4 -25 16 -199 18 -214 3 -4 -4 -16 -1 -26 5 -16 10 -21 9 -28
-2 -5 -8 -16 -11 -24 -8 -9 3 -18 -1 -22 -11 -4 -10 -9 -13 -13 -6 -17 26 -56
24 -215 -13 -58 -13 -72 -21 -106 -60 -22 -25 -54 -48 -73 -54 -33 -10 -158
-13 -213 -5 -16 2 -32 0 -35 -5 -3 -4 -27 -2 -53 6 -26 8 -47 12 -47 9 0 -3
-14 8 -31 25 -22 22 -41 32 -67 33 -92 5 -119 4 -152 -6 -19 -5 -43 -8 -53 -7
-10 1 -25 -3 -32 -9 -8 -7 -26 -9 -39 -6 -14 3 -28 2 -31 -4 -3 -5 -19 -10
-35 -10 -16 0 -91 -16 -167 -36 -76 -19 -149 -38 -163 -40 -14 -3 -32 -7 -40
-11 -14 -6 -91 -26 -150 -39 -14 -3 -32 -8 -40 -11 -8 -3 -26 -7 -40 -9 -14
-1 -45 -6 -70 -10 -25 -4 -79 -8 -120 -8 -41 -1 -79 -4 -85 -7 -9 -6 -146 -5
-152 1 -2 1 -6 3 -10 5 -5 1 -17 6 -28 11 -36 16 -176 10 -235 -10 -30 -10
-71 -20 -90 -22 -55 -7 -127 -44 -139 -72 -14 -30 0 -50 19 -27 7 8 17 15 23
15 6 0 18 7 27 15 10 9 39 20 66 25 82 15 109 23 115 31 6 10 163 12 264 4 54
-5 74 -11 88 -27 17 -20 18 -20 36 -3 17 15 24 15 56 4 29 -11 40 -11 57 0 14
9 24 9 31 2 6 -6 17 -7 26 -2 9 5 43 14 75 21 33 7 67 16 75 20 9 5 43 14 76
20 80 15 77 15 100 26 11 6 35 11 54 13 18 1 42 6 52 12 11 5 19 7 19 3 0 -3
6 -2 13 4 7 6 29 12 48 13 19 2 46 8 60 15 15 7 51 16 80 20 75 9 94 12 94 14
0 1 9 3 20 5 11 1 56 10 100 19 44 8 90 17 102 19 12 2 26 6 29 10 17 17 56 4
89 -28 54 -55 53 -56 -60 -57 -27 0 -61 -6 -75 -13 -14 -7 -56 -27 -95 -45
-38 -17 -77 -35 -86 -40 -9 -5 -34 -12 -55 -15 -22 -4 -46 -9 -54 -13 -8 -3
-40 -7 -70 -8 -141 -7 -302 -24 -315 -34 -10 -7 -108 -41 -135 -47 -8 -2 -26
-5 -40 -7 -14 -2 -43 -8 -65 -13 -36 -10 -75 -14 -160 -17 -18 -1 -30 -6 -30
-15 0 -8 13 -15 30 -17 17 -2 40 -6 53 -9 13 -3 22 -1 22 6 0 8 4 8 13 1 12
-9 61 -1 257 43 41 10 82 18 90 20 36 5 76 17 93 26 10 6 27 7 38 4 10 -4 24
-3 30 0 6 4 32 9 57 10 120 9 229 28 280 51 20 8 64 28 97 44 33 15 73 31 90
34 16 4 33 13 37 19 6 9 10 9 16 1 5 -8 25 -9 62 -4 44 6 81 2 185 -21 161
-36 188 -37 183 -7 -2 18 -10 22 -48 24 -58 3 -94 9 -108 18 -25 15 -9 23 46
23 118 0 174 12 220 50 24 19 55 37 70 39 63 8 161 30 167 36 4 4 13 4 21 1 8
-3 21 0 29 7 8 6 23 9 34 5 10 -3 22 -1 26 4 3 6 16 11 28 11 84 0 228 9 236
14 5 4 12 2 15 -2 3 -5 53 -8 112 -6 99 3 110 5 156 33 27 17 52 31 56 31 7 0
50 51 66 78 5 8 -1 12 -21 11 -18 0 -52 -18 -92 -50z"/>
<path d="M8233 2952 c-13 -2 -23 -7 -23 -12 0 -4 -10 -6 -21 -3 -16 4 -20 2
-17 -8 3 -10 25 -15 72 -17 60 -3 67 -1 64 14 -3 19 -40 32 -75 26z"/>
<path d="M8100 2943 c0 -5 -28 -9 -63 -11 -85 -5 -101 -7 -114 -15 -6 -4 -18
-4 -27 -1 -11 4 -16 1 -16 -10 0 -13 12 -16 64 -16 36 0 68 5 71 10 4 7 12 7
24 0 10 -5 22 -6 26 -2 3 4 23 7 42 7 28 0 37 5 44 23 7 20 5 22 -21 22 -17 0
-30 -3 -30 -7z"/>
<path d="M7692 2892 c-13 -2 -21 -9 -19 -15 4 -13 36 -11 50 3 12 11 -3 17
-31 12z"/>
<path d="M7806 2885 c4 -8 8 -15 10 -15 2 0 4 7 4 15 0 8 -4 15 -10 15 -5 0
-7 -7 -4 -15z"/>
<path d="M7602 2873 c2 -10 10 -18 18 -18 8 0 16 8 18 18 2 12 -3 17 -18 17
-15 0 -20 -5 -18 -17z"/>
<path d="M7754 2875 c25 -19 36 -19 36 0 0 10 -10 15 -27 15 -27 -1 -27 -1 -9
-15z"/>
<path d="M7270 2865 c-7 -9 -10 -18 -6 -22 9 -10 58 16 51 27 -9 15 -31 12
-45 -5z"/>
<path d="M7171 2842 c-24 -9 -46 -23 -49 -31 -7 -22 59 -3 88 25 29 28 21 29
-39 6z"/>
<path d="M6796 2823 c-2 -3 -10 -6 -18 -7 -34 -7 -74 -20 -97 -32 -14 -8 -33
-14 -41 -14 -8 0 -27 -6 -42 -14 -14 -8 -46 -17 -70 -21 -78 -11 -98 -16 -98
-25 0 -11 58 -24 95 -21 35 3 171 48 200 66 17 10 82 25 135 31 29 2 31 4 22
21 -9 15 -74 27 -86 16z"/>
<path d="M6896 2814 c-8 -20 41 -39 60 -23 24 20 15 35 -20 36 -22 1 -37 -4
-40 -13z"/>
<path d="M4660 2540 c0 -5 6 -10 13 -10 8 0 22 -9 31 -19 20 -22 56 -24 56 -3
0 7 -16 20 -35 28 -40 16 -65 18 -65 4z"/>
<path d="M7054 2196 c-8 -21 3 -49 16 -41 5 3 10 15 10 25 0 25 -18 36 -26 16z"/>
<path d="M2795 910 c3 -5 8 -10 11 -10 2 0 4 5 4 10 0 6 -5 10 -11 10 -5 0 -7
-4 -4 -10z"/>
<path d="M11320 2290 c0 -5 5 -10 11 -10 5 0 7 5 4 10 -3 6 -8 10 -11 10 -2 0
-4 -4 -4 -10z"/>
<path d="M1130 5650 c0 -5 5 -10 10 -10 6 0 10 5 10 10 0 6 -4 10 -10 10 -5 0
-10 -4 -10 -10z"/>
<path d="M130 4450 c0 -5 5 -10 10 -10 6 0 10 5 10 10 0 6 -4 10 -10 10 -5 0
-10 -4 -10 -10z"/>
<path d="M90 4410 c0 -5 5 -10 11 -10 5 0 7 5 4 10 -3 6 -8 10 -11 10 -2 0 -4
-4 -4 -10z"/>
<path d="M90 4340 c0 -5 5 -10 11 -10 5 0 7 5 4 10 -3 6 -8 10 -11 10 -2 0 -4
-4 -4 -10z"/>
<path d="M20 3370 c0 -5 5 -10 11 -10 5 0 7 5 4 10 -3 6 -8 10 -11 10 -2 0 -4
-4 -4 -10z"/>
<path d="M10 3260 c0 -5 5 -10 11 -10 5 0 7 5 4 10 -3 6 -8 10 -11 10 -2 0 -4
-4 -4 -10z"/>
<path d="M30 3195 c7 -9 15 -13 17 -11 7 7 -7 26 -19 26 -6 0 -6 -6 2 -15z"/>
<path d="M12490 2105 c0 -8 5 -15 10 -15 6 0 10 7 10 15 0 8 -4 15 -10 15 -5
0 -10 -7 -10 -15z"/>
<path d="M585 1020 c3 -5 8 -10 11 -10 2 0 4 5 4 10 0 6 -5 10 -11 10 -5 0 -7
-4 -4 -10z"/>
<path d="M600 880 c0 -13 18 -22 24 -11 3 5 -1 11 -9 15 -8 3 -15 1 -15 -4z"/>
<path d="M629 854 c-7 -8 -6 -14 1 -19 5 -3 10 0 10 7 1 9 5 7 14 -4 18 -24
24 -23 24 5 0 25 -31 32 -49 11z"/>
<path d="M717 663 c-4 -3 -7 -11 -7 -17 0 -6 5 -5 12 2 6 6 9 14 7 17 -3 3 -9
2 -12 -2z"/>
<path d="M800 560 c0 -5 5 -10 11 -10 5 0 7 5 4 10 -3 6 -8 10 -11 10 -2 0 -4
-4 -4 -10z"/>
<path d="M815 500 c3 -5 8 -10 11 -10 2 0 4 5 4 10 0 6 -5 10 -11 10 -5 0 -7
-4 -4 -10z"/>
<path d="M12060 309 c0 -24 23 -21 28 4 2 10 -3 17 -12 17 -10 0 -16 -9 -16
-21z"/>
<path d="M1316 124 c-8 -22 -8 -22 14 -34 18 -10 20 -8 20 20 0 32 -23 42 -34
14z"/>
<path d="M1360 76 c0 -17 24 -38 33 -29 15 15 6 43 -13 43 -11 0 -20 -6 -20
-14z"/>
</g>
</svg>
